<svg xmlns="http://www.w3.org/2000/svg" xmlns:xlink="http://www.w3.org/1999/xlink" width="500" zoomAndPan="magnify" viewBox="0 0 375 374.999991" height="500" preserveAspectRatio="xMidYMid meet" version="1.2"><defs><clipPath id="d1074744fe"><path d="M 80.230469 78.585938 L 286.773438 78.585938 L 286.773438 301 L 80.230469 301 Z M 80.230469 78.585938 "/></clipPath><clipPath id="27efe323b0"><path d="M 97.480469 78.585938 L 269.523438 78.585938 C 274.101562 78.585938 278.488281 80.402344 281.722656 83.636719 C 284.957031 86.871094 286.773438 91.261719 286.773438 95.835938 L 286.773438 283.75 C 286.773438 288.324219 284.957031 292.710938 281.722656 295.945312 C 278.488281 299.183594 274.101562 301 269.523438 301 L 97.480469 301 C 92.90625 301 88.519531 299.183594 85.285156 295.945312 C 82.046875 292.710938 80.230469 288.324219 80.230469 283.75 L 80.230469 95.835938 C 80.230469 91.261719 82.046875 86.871094 85.285156 83.636719 C 88.519531 80.402344 92.90625 78.585938 97.480469 78.585938 Z M 97.480469 78.585938 "/></clipPath><clipPath id="733d441dbe"><path d="M 0.230469 0.585938 L 206.773438 0.585938 L 206.773438 223 L 0.230469 223 Z M 0.230469 0.585938 "/></clipPath><clipPath id="77b1420721"><path d="M 17.480469 0.585938 L 189.523438 0.585938 C 194.101562 0.585938 198.488281 2.402344 201.722656 5.636719 C 204.957031 8.871094 206.773438 13.261719 206.773438 17.835938 L 206.773438 205.75 C 206.773438 210.324219 204.957031 214.710938 201.722656 217.945312 C 198.488281 221.183594 194.101562 223 189.523438 223 L 17.480469 223 C 12.90625 223 8.519531 221.183594 5.285156 217.945312 C 2.046875 214.710938 0.230469 210.324219 0.230469 205.75 L 0.230469 17.835938 C 0.230469 13.261719 2.046875 8.871094 5.285156 5.636719 C 8.519531 2.402344 12.90625 0.585938 17.480469 0.585938 Z M 17.480469 0.585938 "/></clipPath><clipPath id="e7d4084a17"><rect x="0" width="207" y="0" height="223"/></clipPath></defs><g id="7ba9b20cff"><g clip-rule="nonzero" clip-path="url(#d1074744fe)"><g clip-rule="nonzero" clip-path="url(#27efe323b0)"><g transform="matrix(1,0,0,1,80,78)"><g clip-path="url(#e7d4084a17)"><g clip-rule="nonzero" clip-path="url(#733d441dbe)"><g clip-rule="nonzero" clip-path="url(#77b1420721)"><path style=" stroke:none;fill-rule:nonzero;fill:#ffffff;fill-opacity:1;" d="M 0.230469 0.585938 L 206.773438 0.585938 L 206.773438 223.265625 L 0.230469 223.265625 Z M 0.230469 0.585938 "/></g></g></g></g></g></g><path style=" stroke:none;fill-rule:nonzero;fill:#000000;fill-opacity:1;" d="M 291.277344 -0.871094 L 81.976562 -0.871094 C 80.621094 -0.871094 79.265625 -0.835938 77.914062 -0.765625 C 76.558594 -0.699219 75.207031 -0.597656 73.859375 -0.464844 C 72.511719 -0.328125 71.164062 -0.160156 69.824219 0.0390625 C 68.484375 0.238281 67.148438 0.472656 65.820312 0.738281 C 64.492188 1.003906 63.171875 1.300781 61.855469 1.632812 C 60.539062 1.960938 59.234375 2.324219 57.9375 2.71875 C 56.640625 3.113281 55.355469 3.539062 54.078125 3.996094 C 52.804688 4.453125 51.539062 4.941406 50.289062 5.460938 C 49.035156 5.980469 47.796875 6.53125 46.574219 7.113281 C 45.347656 7.691406 44.136719 8.300781 42.941406 8.941406 C 41.746094 9.582031 40.570312 10.25 39.40625 10.945312 C 38.246094 11.644531 37.101562 12.371094 35.972656 13.121094 C 34.847656 13.875 33.738281 14.65625 32.648438 15.464844 C 31.5625 16.273438 30.492188 17.105469 29.445312 17.964844 C 28.398438 18.824219 27.371094 19.710938 26.367188 20.621094 C 25.363281 21.53125 24.382812 22.464844 23.425781 23.425781 C 22.464844 24.382812 21.53125 25.363281 20.621094 26.367188 C 19.710938 27.371094 18.824219 28.398438 17.964844 29.445312 C 17.105469 30.492188 16.273438 31.5625 15.464844 32.648438 C 14.65625 33.738281 13.875 34.847656 13.121094 35.972656 C 12.371094 37.101562 11.644531 38.246094 10.945312 39.40625 C 10.25 40.570312 9.582031 41.746094 8.941406 42.941406 C 8.300781 44.136719 7.691406 45.347656 7.113281 46.574219 C 6.53125 47.796875 5.980469 49.035156 5.460938 50.289062 C 4.941406 51.539062 4.453125 52.804688 3.996094 54.078125 C 3.539062 55.355469 3.113281 56.640625 2.71875 57.9375 C 2.324219 59.234375 1.960938 60.539062 1.632812 61.855469 C 1.300781 63.171875 1.003906 64.492188 0.738281 65.820312 C 0.472656 67.148438 0.238281 68.484375 0.0390625 69.824219 C -0.160156 71.164062 -0.328125 72.511719 -0.464844 73.859375 C -0.597656 75.207031 -0.699219 76.558594 -0.765625 77.914062 C -0.835938 79.265625 -0.871094 80.621094 -0.871094 81.976562 L -0.871094 291.277344 C -0.871094 292.632812 -0.835938 293.988281 -0.765625 295.34375 C -0.699219 296.695312 -0.597656 298.046875 -0.464844 299.394531 C -0.328125 300.746094 -0.160156 302.089844 0.0390625 303.429688 C 0.238281 304.769531 0.472656 306.105469 0.738281 307.433594 C 1.003906 308.765625 1.300781 310.085938 1.632812 311.398438 C 1.960938 312.714844 2.324219 314.019531 2.71875 315.316406 C 3.113281 316.613281 3.539062 317.898438 3.996094 319.175781 C 4.453125 320.453125 4.941406 321.714844 5.460938 322.96875 C 5.980469 324.21875 6.53125 325.457031 7.113281 326.683594 C 7.691406 327.90625 8.300781 329.117188 8.941406 330.3125 C 9.582031 331.507812 10.25 332.6875 10.945312 333.847656 C 11.644531 335.011719 12.371094 336.15625 13.121094 337.28125 C 13.875 338.410156 14.65625 339.515625 15.464844 340.605469 C 16.273438 341.695312 17.105469 342.761719 17.964844 343.808594 C 18.824219 344.855469 19.710938 345.882812 20.621094 346.886719 C 21.53125 347.890625 22.464844 348.871094 23.425781 349.832031 C 24.382812 350.789062 25.363281 351.722656 26.367188 352.632812 C 27.371094 353.542969 28.398438 354.429688 29.445312 355.289062 C 30.492188 356.148438 31.5625 356.984375 32.648438 357.792969 C 33.738281 358.597656 34.847656 359.378906 35.972656 360.132812 C 37.101562 360.886719 38.246094 361.613281 39.40625 362.308594 C 40.570312 363.007812 41.746094 363.675781 42.941406 364.3125 C 44.136719 364.953125 45.347656 365.5625 46.574219 366.144531 C 47.796875 366.722656 49.035156 367.273438 50.289062 367.792969 C 51.539062 368.3125 52.804688 368.800781 54.078125 369.257812 C 55.355469 369.714844 56.640625 370.140625 57.9375 370.535156 C 59.234375 370.929688 60.542969 371.292969 61.855469 371.625 C 63.171875 371.953125 64.492188 372.253906 65.820312 372.519531 C 67.148438 372.785156 68.484375 373.015625 69.824219 373.21875 C 71.164062 373.417969 72.511719 373.585938 73.859375 373.71875 C 75.207031 373.855469 76.558594 373.953125 77.914062 374.023438 C 79.265625 374.089844 80.621094 374.125 81.976562 374.128906 L 291.277344 374.128906 C 292.632812 374.125 293.988281 374.089844 295.34375 374.023438 C 296.695312 373.953125 298.046875 373.855469 299.394531 373.71875 C 300.746094 373.585938 302.089844 373.417969 303.429688 373.21875 C 304.769531 373.015625 306.105469 372.785156 307.433594 372.519531 C 308.765625 372.253906 310.085938 371.953125 311.398438 371.625 C 312.714844 371.292969 314.019531 370.929688 315.316406 370.535156 C 316.613281 370.140625 317.898438 369.714844 319.175781 369.257812 C 320.453125 368.800781 321.714844 368.3125 322.96875 367.792969 C 324.21875 367.273438 325.457031 366.722656 326.683594 366.144531 C 327.90625 365.5625 329.117188 364.953125 330.3125 364.316406 C 331.507812 363.675781 332.6875 363.007812 333.847656 362.308594 C 335.011719 361.613281 336.15625 360.886719 337.28125 360.132812 C 338.410156 359.378906 339.515625 358.597656 340.605469 357.792969 C 341.695312 356.984375 342.761719 356.148438 343.808594 355.289062 C 344.855469 354.429688 345.882812 353.542969 346.886719 352.632812 C 347.890625 351.722656 348.871094 350.789062 349.832031 349.832031 C 350.789062 348.875 351.722656 347.890625 352.632812 346.886719 C 353.542969 345.882812 354.429688 344.855469 355.289062 343.808594 C 356.148438 342.761719 356.984375 341.695312 357.792969 340.605469 C 358.597656 339.515625 359.378906 338.410156 360.132812 337.28125 C 360.886719 336.15625 361.613281 335.011719 362.308594 333.847656 C 363.007812 332.6875 363.675781 331.507812 364.3125 330.3125 C 364.953125 329.117188 365.5625 327.90625 366.144531 326.683594 C 366.722656 325.457031 367.273438 324.21875 367.792969 322.96875 C 368.3125 321.714844 368.800781 320.453125 369.257812 319.175781 C 369.714844 317.898438 370.140625 316.613281 370.535156 315.316406 C 370.929688 314.019531 371.292969 312.714844 371.625 311.398438 C 371.953125 310.085938 372.253906 308.765625 372.519531 307.433594 C 372.785156 306.105469 373.015625 304.769531 373.21875 303.429688 C 373.417969 302.089844 373.585938 300.746094 373.71875 299.394531 C 373.855469 298.046875 373.953125 296.695312 374.023438 295.34375 C 374.089844 293.988281 374.125 292.632812 374.128906 291.277344 L 374.128906 81.976562 C 374.125 80.621094 374.089844 79.265625 374.023438 77.914062 C 373.953125 76.558594 373.855469 75.207031 373.71875 73.859375 C 373.585938 72.511719 373.417969 71.164062 373.21875 69.824219 C 373.015625 68.484375 372.785156 67.148438 372.519531 65.820312 C 372.253906 64.492188 371.953125 63.171875 371.625 61.855469 C 371.292969 60.539062 370.929688 59.234375 370.535156 57.9375 C 370.140625 56.640625 369.714844 55.355469 369.257812 54.078125 C 368.800781 52.804688 368.3125 51.539062 367.792969 50.289062 C 367.273438 49.035156 366.722656 47.796875 366.144531 46.574219 C 365.5625 45.347656 364.953125 44.136719 364.316406 42.941406 C 363.675781 41.746094 363.007812 40.570312 362.308594 39.40625 C 361.613281 38.246094 360.886719 37.101562 360.132812 35.972656 C 359.378906 34.847656 358.597656 33.738281 357.792969 32.648438 C 356.984375 31.5625 356.148438 30.492188 355.289062 29.445312 C 354.429688 28.398438 353.542969 27.371094 352.632812 26.367188 C 351.722656 25.363281 350.789062 24.382812 349.832031 23.425781 C 348.875 22.464844 347.890625 21.53125 346.886719 20.621094 C 345.882812 19.710938 344.855469 18.824219 343.808594 17.964844 C 342.761719 17.105469 341.695312 16.273438 340.605469 15.464844 C 339.515625 14.65625 338.410156 13.875 337.28125 13.121094 C 336.15625 12.371094 335.011719 11.644531 333.847656 10.945312 C 332.6875 10.25 331.507812 9.582031 330.3125 8.941406 C 329.117188 8.300781 327.90625 7.691406 326.683594 7.113281 C 325.457031 6.53125 324.21875 5.980469 322.96875 5.460938 C 321.714844 4.941406 320.453125 4.453125 319.175781 3.996094 C 317.898438 3.539062 316.613281 3.113281 315.316406 2.71875 C 314.019531 2.324219 312.714844 1.960938 311.398438 1.632812 C 310.085938 1.300781 308.765625 1.003906 307.433594 0.738281 C 306.105469 0.472656 304.769531 0.238281 303.429688 0.0390625 C 302.089844 -0.160156 300.746094 -0.328125 299.394531 -0.464844 C 298.046875 -0.597656 296.695312 -0.699219 295.34375 -0.765625 C 293.988281 -0.835938 292.632812 -0.871094 291.277344 -0.871094 Z M 273.835938 204.070312 L 204.070312 204.070312 L 204.070312 273.835938 C 204.070312 274.410156 204.042969 274.976562 203.984375 275.546875 C 203.929688 276.117188 203.847656 276.679688 203.734375 277.238281 C 203.625 277.800781 203.484375 278.355469 203.320312 278.898438 C 203.152344 279.445312 202.960938 279.984375 202.742188 280.511719 C 202.523438 281.039062 202.28125 281.554688 202.011719 282.058594 C 201.742188 282.5625 201.449219 283.050781 201.128906 283.527344 C 200.8125 284.003906 200.472656 284.460938 200.109375 284.902344 C 199.75 285.34375 199.363281 285.765625 198.960938 286.171875 C 198.558594 286.574219 198.132812 286.957031 197.691406 287.320312 C 197.25 287.683594 196.792969 288.023438 196.316406 288.339844 C 195.84375 288.65625 195.355469 288.949219 194.851562 289.21875 C 194.347656 289.488281 193.832031 289.734375 193.300781 289.953125 C 192.773438 290.171875 192.238281 290.363281 191.691406 290.527344 C 191.144531 290.695312 190.589844 290.832031 190.03125 290.945312 C 189.46875 291.054688 188.90625 291.140625 188.335938 291.195312 C 187.769531 291.25 187.199219 291.277344 186.628906 291.277344 C 186.058594 291.277344 185.488281 291.25 184.917969 291.195312 C 184.351562 291.140625 183.785156 291.054688 183.226562 290.945312 C 182.664062 290.832031 182.113281 290.695312 181.566406 290.527344 C 181.019531 290.363281 180.480469 290.171875 179.953125 289.953125 C 179.425781 289.734375 178.910156 289.488281 178.40625 289.21875 C 177.902344 288.949219 177.414062 288.65625 176.9375 288.339844 C 176.460938 288.023438 176.003906 287.683594 175.5625 287.320312 C 175.121094 286.957031 174.699219 286.574219 174.292969 286.171875 C 173.890625 285.765625 173.507812 285.34375 173.144531 284.902344 C 172.78125 284.460938 172.441406 284.003906 172.125 283.527344 C 171.808594 283.050781 171.515625 282.5625 171.246094 282.058594 C 170.976562 281.554688 170.730469 281.039062 170.515625 280.511719 C 170.296875 279.984375 170.101562 279.445312 169.9375 278.898438 C 169.769531 278.355469 169.632812 277.800781 169.519531 277.238281 C 169.410156 276.679688 169.324219 276.117188 169.269531 275.546875 C 169.214844 274.976562 169.1875 274.410156 169.1875 273.835938 L 169.1875 204.070312 L 99.417969 204.070312 C 98.847656 204.070312 98.277344 204.042969 97.710938 203.984375 C 97.140625 203.929688 96.574219 203.847656 96.015625 203.734375 C 95.457031 203.625 94.902344 203.484375 94.355469 203.320312 C 93.808594 203.152344 93.273438 202.960938 92.742188 202.742188 C 92.214844 202.523438 91.699219 202.28125 91.195312 202.011719 C 90.691406 201.742188 90.203125 201.449219 89.726562 201.128906 C 89.253906 200.8125 88.796875 200.472656 88.355469 200.109375 C 87.910156 199.75 87.488281 199.363281 87.085938 198.960938 C 86.679688 198.558594 86.296875 198.132812 85.9375 197.691406 C 85.574219 197.25 85.234375 196.792969 84.917969 196.316406 C 84.597656 195.84375 84.304688 195.355469 84.035156 194.851562 C 83.765625 194.347656 83.523438 193.832031 83.304688 193.300781 C 83.085938 192.773438 82.894531 192.238281 82.726562 191.691406 C 82.5625 191.144531 82.421875 190.589844 82.3125 190.03125 C 82.199219 189.46875 82.117188 188.90625 82.0625 188.335938 C 82.003906 187.769531 81.976562 187.199219 81.976562 186.628906 C 81.976562 186.058594 82.003906 185.488281 82.0625 184.917969 C 82.117188 184.351562 82.199219 183.785156 82.3125 183.226562 C 82.421875 182.664062 82.5625 182.113281 82.726562 181.566406 C 82.894531 181.019531 83.085938 180.480469 83.304688 179.953125 C 83.523438 179.425781 83.765625 178.910156 84.035156 178.40625 C 84.304688 177.902344 84.597656 177.414062 84.917969 176.9375 C 85.234375 176.460938 85.574219 176.003906 85.9375 175.5625 C 86.296875 175.121094 86.679688 174.699219 87.085938 174.292969 C 87.488281 173.890625 87.910156 173.507812 88.355469 173.144531 C 88.796875 172.78125 89.253906 172.441406 89.726562 172.125 C 90.203125 171.808594 90.691406 171.515625 91.195312 171.246094 C 91.699219 170.976562 92.214844 170.730469 92.742188 170.515625 C 93.273438 170.296875 93.808594 170.101562 94.355469 169.9375 C 94.902344 169.769531 95.457031 169.632812 96.015625 169.519531 C 96.574219 169.410156 97.140625 169.324219 97.710938 169.269531 C 98.277344 169.214844 98.847656 169.1875 99.417969 169.1875 L 169.1875 169.1875 L 169.1875 99.417969 C 169.1875 98.847656 169.214844 98.277344 169.269531 97.710938 C 169.324219 97.140625 169.410156 96.574219 169.519531 96.015625 C 169.632812 95.457031 169.769531 94.902344 169.9375 94.355469 C 170.101562 93.808594 170.296875 93.273438 170.515625 92.742188 C 170.730469 92.214844 170.976562 91.699219 171.246094 91.195312 C 171.515625 90.691406 171.808594 90.203125 172.125 89.726562 C 172.441406 89.253906 172.78125 88.796875 173.144531 88.355469 C 173.507812 87.910156 173.890625 87.488281 174.292969 87.085938 C 174.699219 86.679688 175.121094 86.296875 175.5625 85.9375 C 176.003906 85.574219 176.460938 85.234375 176.9375 84.917969 C 177.414062 84.597656 177.902344 84.304688 178.40625 84.035156 C 178.910156 83.765625 179.425781 83.523438 179.953125 83.304688 C 180.480469 83.085938 181.019531 82.894531 181.566406 82.726562 C 182.113281 82.5625 182.664062 82.421875 183.226562 82.3125 C 183.785156 82.199219 184.351562 82.117188 184.917969 82.0625 C 185.488281 82.003906 186.058594 81.976562 186.628906 81.976562 C 187.199219 81.976562 187.769531 82.003906 188.335938 82.0625 C 188.90625 82.117188 189.46875 82.199219 190.03125 82.3125 C 190.589844 82.421875 191.144531 82.5625 191.691406 82.726562 C 192.238281 82.894531 192.773438 83.085938 193.300781 83.304688 C 193.832031 83.523438 194.347656 83.765625 194.851562 84.035156 C 195.355469 84.304688 195.84375 84.597656 196.316406 84.917969 C 196.792969 85.234375 197.25 85.574219 197.691406 85.9375 C 198.132812 86.296875 198.558594 86.679688 198.960938 87.085938 C 199.363281 87.488281 199.75 87.910156 200.109375 88.355469 C 200.472656 88.796875 200.8125 89.253906 201.128906 89.726562 C 201.449219 90.203125 201.742188 90.691406 202.011719 91.195312 C 202.28125 91.699219 202.523438 92.214844 202.742188 92.742188 C 202.960938 93.273438 203.152344 93.808594 203.320312 94.355469 C 203.484375 94.902344 203.625 95.457031 203.734375 96.015625 C 203.847656 96.574219 203.929688 97.140625 203.984375 97.710938 C 204.042969 98.277344 204.070312 98.847656 204.070312 99.417969 L 204.070312 169.1875 L 273.835938 169.1875 C 274.410156 169.1875 274.976562 169.214844 275.546875 169.269531 C 276.117188 169.324219 276.679688 169.410156 277.238281 169.519531 C 277.800781 169.632812 278.355469 169.769531 278.898438 169.9375 C 279.445312 170.101562 279.984375 170.296875 280.511719 170.515625 C 281.039062 170.730469 281.554688 170.976562 282.058594 171.246094 C 282.5625 171.515625 283.050781 171.808594 283.527344 172.125 C 284.003906 172.441406 284.460938 172.78125 284.902344 173.144531 C 285.34375 173.507812 285.765625 173.890625 286.171875 174.292969 C 286.574219 174.699219 286.957031 175.121094 287.320312 175.5625 C 287.683594 176.003906 288.023438 176.460938 288.339844 176.9375 C 288.65625 177.414062 288.949219 177.902344 289.21875 178.40625 C 289.488281 178.910156 289.734375 179.425781 289.953125 179.953125 C 290.171875 180.480469 290.363281 181.019531 290.527344 181.566406 C 290.695312 182.113281 290.832031 182.664062 290.945312 183.226562 C 291.054688 183.785156 291.140625 184.351562 291.195312 184.917969 C 291.25 185.488281 291.277344 186.058594 291.277344 186.628906 C 291.277344 187.199219 291.25 187.769531 291.195312 188.335938 C 291.140625 188.90625 291.054688 189.46875 290.945312 190.03125 C 290.832031 190.589844 290.695312 191.144531 290.527344 191.691406 C 290.363281 192.238281 290.171875 192.773438 289.953125 193.300781 C 289.734375 193.832031 289.488281 194.347656 289.21875 194.851562 C 288.949219 195.355469 288.65625 195.84375 288.339844 196.316406 C 288.023438 196.792969 287.683594 197.25 287.320312 197.691406 C 286.957031 198.132812 286.574219 198.558594 286.171875 198.960938 C 285.765625 199.363281 285.34375 199.75 284.902344 200.109375 C 284.460938 200.472656 284.003906 200.8125 283.527344 201.128906 C 283.050781 201.449219 282.5625 201.742188 282.058594 202.011719 C 281.554688 202.28125 281.039062 202.523438 280.511719 202.742188 C 279.984375 202.960938 279.445312 203.152344 278.898438 203.320312 C 278.355469 203.484375 277.800781 203.625 277.238281 203.734375 C 276.679688 203.847656 276.117188 203.929688 275.546875 203.984375 C 274.976562 204.042969 274.410156 204.070312 273.835938 204.070312 Z M 273.835938 204.070312 "/></g></svg>