<svg xmlns="http://www.w3.org/2000/svg" xmlns:xlink="http://www.w3.org/1999/xlink" width="500" zoomAndPan="magnify" viewBox="0 0 375 374.999991" height="500" preserveAspectRatio="xMidYMid meet" version="1.2"><defs><clipPath id="447d43ebcb"><path d="M 124.089844 0 L 250.839844 0 L 250.839844 306 L 124.089844 306 Z M 124.089844 0 "/></clipPath></defs><g id="3ecffb0a7b"><path style=" stroke:none;fill-rule:nonzero;fill:#c40000;fill-opacity:1;" d="M 201.9375 2.28125 L 201.664062 2.285156 C 188.46875 5.304688 179.871094 7.925781 175.878906 10.152344 C 170.105469 12.808594 165.363281 15.933594 161.652344 19.53125 C 151.519531 29.582031 143.53125 38.679688 137.683594 46.824219 C 131.0625 59.347656 127.550781 66.761719 127.136719 69.070312 L 126.679688 70.753906 L 125.539062 78.765625 L 125.089844 85.335938 C 124.957031 89.667969 125.160156 93.914062 125.695312 98.074219 C 126.761719 106.386719 129.164062 114.34375 132.898438 121.945312 C 135.582031 128.101562 139.410156 132.417969 144.390625 134.894531 C 150.175781 137.464844 155.417969 138.550781 160.109375 138.148438 C 162.828125 138.085938 165.71875 137.785156 168.78125 137.238281 L 174.644531 134.339844 C 178.449219 132.039062 182.046875 129.007812 185.433594 125.25 L 190.359375 119.066406 C 193.539062 114.578125 196.507812 109.359375 199.265625 103.410156 C 202.027344 97.460938 204.578125 90.785156 206.921875 83.378906 C 210.851562 70.566406 212.867188 61.714844 212.972656 56.816406 C 213.367188 53.125 213.628906 49.179688 213.753906 44.984375 C 213.984375 43.203125 213.867188 36.339844 213.398438 24.394531 L 212.875 16.773438 C 212.800781 15.402344 212.007812 12.71875 210.5 8.722656 C 208.496094 4.425781 205.640625 2.28125 201.9375 2.28125 "/><path style=" stroke:none;fill-rule:nonzero;fill:#c40000;fill-opacity:1;" d="M 129.3125 100.59375 L 128.992188 102.003906 C 128.816406 106.644531 129.242188 111.25 130.269531 115.808594 C 132.265625 126.566406 134.691406 136.183594 137.550781 144.660156 C 138.871094 149.183594 144.710938 166.46875 155.070312 196.515625 C 159.625 208.234375 163.632812 216.050781 167.089844 219.957031 C 168.246094 221.257812 169.335938 222.128906 170.367188 222.5625 C 170.378906 223.089844 172.542969 222.992188 176.859375 222.265625 L 180.941406 220.847656 C 183.5625 219.621094 185.96875 217.828125 188.167969 215.46875 C 190.367188 213.109375 192.355469 210.1875 194.132812 206.695312 L 196.644531 201.035156 C 198.210938 196.976562 199.570312 192.355469 200.71875 187.164062 C 201.796875 182.929688 202.589844 178.382812 203.101562 173.523438 L 203.660156 166.007812 C 203.886719 160.839844 203.835938 155.363281 203.5 149.574219 C 202.828125 137.996094 201.023438 125.179688 198.089844 111.121094 L 129.3125 100.59375 "/><path style=" stroke:none;fill-rule:nonzero;fill:#c40000;fill-opacity:1;" d="M 130.03125 98.789062 L 129.757812 99.5625 C 129.058594 101.738281 128.652344 104.765625 128.535156 108.648438 C 128.554688 110.28125 128.648438 111.945312 128.816406 113.640625 C 128.898438 114.488281 129 115.34375 129.121094 116.207031 L 129.316406 117.507812 C 129.453125 118.375 129.609375 119.253906 129.785156 120.140625 C 130.046875 121.519531 130.40625 122.949219 130.855469 124.433594 L 131.605469 126.703125 C 132.152344 128.242188 132.792969 129.835938 133.523438 131.480469 C 134.992188 134.773438 136.835938 138.277344 139.058594 142 L 130.03125 98.789062 "/><path style=" stroke:none;fill-rule:nonzero;fill:#c40000;fill-opacity:1;" d="M 203.921875 171.214844 L 158.257812 195.605469 L 158.492188 199.195312 C 158.847656 202.039062 159.605469 205.792969 160.761719 210.453125 C 161.914062 215.113281 163.46875 220.679688 165.421875 227.152344 C 168.980469 239.128906 174.835938 256.675781 182.980469 279.789062 C 185.644531 287.144531 188.542969 293.0625 191.675781 297.539062 C 193.238281 299.585938 194.664062 300.171875 195.960938 299.289062 C 197.535156 298.429688 199.414062 296.113281 201.605469 292.332031 C 203.050781 290.332031 206.507812 283.191406 211.964844 270.914062 C 216.414062 251.632812 218.921875 236.53125 219.492188 225.609375 L 219.917969 214.675781 L 219.710938 207.996094 C 219.398438 203.664062 218.746094 199.566406 217.753906 195.707031 L 216.011719 190.097656 C 214.679688 186.476562 213.003906 183.089844 210.988281 179.941406 C 208.976562 176.796875 206.621094 173.886719 203.921875 171.214844 "/><path style=" stroke:none;fill-rule:nonzero;fill:#c40000;fill-opacity:1;" d="M 157.160156 199.433594 L 157.101562 200.316406 C 157.054688 202.855469 157.890625 206.886719 159.601562 212.414062 C 160.492188 215.191406 161.371094 217.671875 162.242188 219.855469 C 162.679688 220.945312 163.113281 221.964844 163.546875 222.90625 C 164.625 225.132812 165.265625 226.382812 165.476562 226.648438 C 168.242188 231.300781 170.9375 234.640625 173.566406 236.660156 C 174.925781 237.78125 176.777344 238.339844 179.117188 238.339844 L 157.160156 199.433594 "/><path style=" stroke:none;fill-rule:nonzero;fill:#c40000;fill-opacity:1;" d="M 216.863281 235.332031 L 185.460938 285.996094 C 185.832031 287.253906 186.878906 289.769531 188.59375 293.542969 C 189.273438 294.90625 189.941406 296.058594 190.601562 297 C 191.914062 298.882812 193.183594 299.929688 194.40625 300.136719 C 195.835938 300.214844 196.777344 300.070312 197.230469 299.710938 C 197.941406 299.375 198.671875 298.871094 199.429688 298.199219 C 200.941406 296.855469 202.542969 294.835938 204.238281 292.148438 C 204.492188 291.960938 205.953125 289.292969 208.617188 284.148438 L 211.253906 278.234375 L 213.433594 272.265625 L 215.152344 266.242188 L 216.414062 260.167969 L 217.214844 254.039062 L 217.558594 247.859375 L 217.441406 241.621094 L 216.863281 235.332031 "/><path style=" stroke:none;fill-rule:nonzero;fill:#c40000;fill-opacity:1;" d="M 208.730469 282.796875 L 189.09375 285.175781 C 188.507812 286.191406 188.265625 287.421875 188.371094 288.859375 L 188.515625 289.980469 C 188.652344 290.753906 188.878906 291.578125 189.1875 292.453125 C 189.5 293.332031 189.898438 294.261719 190.382812 295.242188 C 191.222656 296.691406 192.164062 297.835938 193.207031 298.671875 C 193.726562 299.089844 194.273438 299.433594 194.84375 299.695312 L 195.71875 300.035156 C 196.316406 300.226562 196.9375 300.335938 197.585938 300.371094 L 199.253906 299.835938 L 200.816406 298.945312 L 202.273438 297.699219 L 203.617188 296.101562 L 204.859375 294.148438 L 205.988281 291.84375 L 207.011719 289.179688 L 207.925781 286.164062 L 208.730469 282.796875 "/><path style=" stroke:none;fill-rule:nonzero;fill:#c40000;fill-opacity:1;" d="M 190.785156 118.648438 L 187.828125 118.734375 C 179.859375 119.179688 171.203125 121.421875 161.859375 125.453125 L 210.359375 214.371094 L 211.90625 217.617188 C 212.914062 219.511719 213.871094 220.867188 214.777344 221.679688 C 215.890625 222.457031 216.542969 222.761719 216.734375 222.59375 C 218.824219 222.027344 220.355469 219.613281 221.324219 215.355469 L 229.070312 156.222656 C 229.453125 150.136719 229.191406 145.164062 228.28125 141.300781 C 227.394531 138.300781 226.777344 136.648438 226.425781 136.34375 L 223.136719 132.628906 L 219.679688 129.351562 C 217.320312 127.3125 214.847656 125.566406 212.261719 124.109375 C 209.679688 122.652344 206.984375 121.488281 204.175781 120.613281 L 199.878906 119.523438 C 196.960938 118.941406 193.929688 118.648438 190.785156 118.648438 "/><path style=" stroke:none;fill-rule:nonzero;fill:#c40000;fill-opacity:1;" d="M 201.941406 70.9375 L 200.605469 70.960938 C 197.019531 71.074219 193.230469 71.636719 189.238281 72.652344 C 186.589844 73.441406 184.039062 74.558594 181.578125 76.007812 L 177.964844 78.421875 C 170.875 83.742188 164.640625 92.015625 159.261719 103.238281 L 224.859375 167.335938 C 229.878906 149.707031 233.269531 135.460938 235.035156 124.585938 C 236.191406 116.183594 236.664062 111.589844 236.460938 110.808594 C 236.652344 109.078125 236.207031 104.917969 235.136719 98.328125 C 233.472656 92.339844 232.277344 88.953125 231.539062 88.167969 C 229.359375 84.128906 226.664062 80.859375 223.453125 78.359375 C 217.390625 73.414062 210.222656 70.9375 201.941406 70.9375 "/><path style=" stroke:none;fill-rule:nonzero;fill:#c40000;fill-opacity:1;" d="M 194.503906 50.492188 L 193.421875 50.503906 C 190.550781 50.570312 187.769531 50.90625 185.085938 51.511719 L 226.96875 162.550781 C 228.554688 160.761719 230.1875 156.398438 231.875 149.457031 C 232.71875 145.988281 233.574219 141.875 234.445312 137.117188 C 236.640625 124.09375 237.976562 115.511719 238.445312 111.359375 C 239.996094 99.152344 239.46875 88.230469 236.871094 78.585938 C 234.550781 69.78125 230.085938 63.152344 223.46875 58.695312 C 214.90625 53.492188 205.25 50.757812 194.503906 50.492188 "/><path style=" stroke:none;fill-rule:nonzero;fill:#c40000;fill-opacity:1;" d="M 198.273438 36.375 L 197.757812 36.378906 L 193.566406 36.59375 L 231.890625 144.871094 C 235.316406 138.820312 238.011719 125.367188 239.980469 104.515625 C 240.546875 97.609375 240.917969 93.625 241.09375 92.566406 C 241.308594 90.085938 241.40625 87.679688 241.386719 85.355469 L 241.273438 81.921875 C 241.136719 79.675781 240.886719 77.503906 240.519531 75.414062 C 240.148438 73.320312 239.664062 71.308594 239.0625 69.371094 C 239.070312 68.636719 237.742188 65.578125 235.074219 60.199219 L 231.722656 54.613281 L 228.011719 49.777344 L 223.945312 45.679688 L 219.523438 42.332031 L 214.742188 39.726562 L 209.609375 37.863281 L 204.117188 36.746094 L 198.273438 36.375 "/><path style=" stroke:none;fill-rule:nonzero;fill:#c40000;fill-opacity:1;" d="M 213.527344 11.566406 L 213.15625 11.574219 C 210.226562 11.433594 206.921875 12.785156 203.242188 15.632812 C 202.011719 16.589844 200.738281 17.722656 199.417969 19.023438 C 198.8125 19.457031 196.734375 21.796875 193.175781 26.039062 L 239.425781 82.804688 L 239.734375 62.203125 C 239.71875 60.464844 239.527344 57.867188 239.164062 54.417969 C 238.933594 52.492188 238.636719 50.6875 238.277344 49.007812 C 235.953125 40.976562 234.546875 36.445312 234.058594 35.40625 C 231.207031 27.398438 228.265625 21.519531 225.242188 17.761719 C 223.765625 15.925781 222.175781 14.5 220.46875 13.480469 C 218.285156 12.382812 216.9375 11.847656 216.433594 11.875 C 215.496094 11.667969 214.527344 11.566406 213.527344 11.566406 "/><path style=" stroke:none;fill-rule:nonzero;fill:#c40000;fill-opacity:1;" d="M 208.933594 5.617188 L 207.53125 5.671875 C 203.757812 5.976562 199.75 7.492188 195.503906 10.21875 L 239.339844 83.453125 C 239.714844 81.449219 239.964844 79.238281 240.089844 76.824219 L 240.183594 73.042969 C 240.179688 67.800781 239.675781 61.734375 238.667969 54.847656 C 238.167969 51.40625 237.539062 47.753906 236.785156 43.898438 C 234.0625 34.378906 232.148438 28.449219 231.042969 26.101562 C 225.355469 12.554688 217.984375 5.726562 208.933594 5.617188 "/><path style=" stroke:none;fill-rule:nonzero;fill:#c40000;fill-opacity:1;" d="M 207.207031 2.636719 L 206.363281 2.691406 C 204.082031 2.980469 201.464844 4.433594 198.515625 7.050781 L 236.90625 48.832031 C 237.070312 47.921875 237.144531 46.902344 237.125 45.78125 L 237.023438 44.015625 C 236.789062 41.554688 236.183594 38.671875 235.199219 35.363281 C 233.921875 30.542969 231.515625 25.277344 227.980469 19.5625 C 226.375 17.054688 224.65625 14.789062 222.816406 12.765625 C 220.160156 10.082031 218.574219 8.578125 218.054688 8.253906 C 213.355469 4.601562 209.738281 2.726562 207.207031 2.636719 "/><path style=" stroke:none;fill-rule:nonzero;fill:#c40000;fill-opacity:1;" d="M 215.738281 326.707031 L 214.710938 326.738281 C 211.953125 326.914062 209.078125 327.78125 206.085938 329.34375 C 202.976562 331.285156 200.382812 333.320312 198.3125 335.445312 C 194.375 339.464844 192.105469 344.328125 191.496094 350.042969 C 191.1875 352.75 191.347656 355.402344 191.972656 358 C 192.289062 359.296875 192.71875 360.582031 193.265625 361.855469 C 193.660156 362.785156 194.160156 363.664062 194.769531 364.480469 L 195.761719 365.667969 C 197.191406 367.191406 199.046875 368.484375 201.332031 369.550781 L 211.328125 373.375 L 215.332031 372.277344 L 218.992188 370.808594 L 222.316406 368.96875 L 225.296875 366.753906 L 227.941406 364.167969 L 230.242188 361.210938 L 232.203125 357.882812 L 233.824219 354.179688 C 235.386719 349.429688 236.117188 346.324219 236.023438 344.855469 C 236.09375 343.757812 236.074219 342.707031 235.964844 341.703125 C 235.542969 339.273438 235.179688 337.871094 234.882812 337.496094 C 234.175781 335.84375 233.070312 334.398438 231.566406 333.15625 C 231.320312 332.800781 229.933594 331.875 227.398438 330.378906 C 226.308594 329.796875 225.105469 329.238281 223.796875 328.699219 C 221.140625 327.417969 218.457031 326.753906 215.738281 326.707031 "/><path style=" stroke:none;fill-rule:nonzero;fill:#c40000;fill-opacity:1;" d="M 209.1875 330.546875 L 208.128906 330.804688 C 205.351562 331.507812 202.914062 332.351562 200.820312 333.335938 C 198.828125 334.445312 197.304688 335.816406 196.246094 337.453125 C 195.257812 338.765625 194.410156 340.441406 193.699219 342.480469 C 193.125 345.34375 192.804688 347.246094 192.738281 348.183594 C 192.589844 349.535156 192.527344 350.753906 192.546875 351.835938 L 209.1875 330.546875 "/><path style=" stroke:none;fill-rule:nonzero;fill:#700202;fill-opacity:1;" d="M 225.894531 322.65625 L 225.304688 322.679688 C 223.726562 322.785156 222.132812 323.242188 220.519531 324.046875 C 219.195312 324.863281 218.488281 325.410156 218.398438 325.691406 C 218.105469 326.050781 218.054688 326.453125 218.246094 326.890625 C 218.371094 327.171875 218.867188 327.4375 219.734375 327.679688 C 223.855469 328.21875 226.511719 328.726562 227.703125 329.199219 C 229.3125 329.722656 230.984375 330.722656 232.730469 332.195312 C 233.566406 332.902344 234.296875 333.640625 234.929688 334.40625 L 235.804688 335.578125 C 236.332031 336.375 236.761719 337.203125 237.089844 338.0625 C 237.734375 339.691406 237.996094 341.613281 237.878906 343.820312 C 237.863281 344.828125 236.878906 348.570312 234.929688 355.050781 C 233.957031 357.960938 233.230469 359.777344 232.742188 360.492188 C 232.054688 361.730469 231.152344 363 230.03125 364.304688 L 222.039062 372.484375 L 221.359375 373.285156 C 221.277344 373.417969 221.285156 373.484375 221.382812 373.484375 C 227.949219 371.265625 232.964844 368.164062 236.429688 364.179688 C 237.320312 363.183594 238.183594 362.09375 239.011719 360.914062 C 241.023438 357.804688 242.191406 355.832031 242.515625 354.992188 C 244.28125 351.195312 245.300781 348.8125 245.574219 347.835938 L 246.257812 344.472656 L 246.472656 341.289062 L 246.222656 338.289062 L 245.507812 335.46875 L 244.328125 332.828125 L 242.679688 330.371094 L 240.566406 328.09375 L 237.992188 326 L 234.945312 324.082031 L 225.894531 322.65625 "/><path style=" stroke:none;fill-rule:nonzero;fill:#700202;fill-opacity:1;" d="M 227.035156 324.777344 L 227.191406 325.800781 C 227.4375 327.136719 227.855469 328.339844 228.441406 329.414062 C 228.738281 329.953125 229.074219 330.457031 229.453125 330.929688 C 229.648438 331.242188 230.253906 331.84375 231.269531 332.734375 C 232.910156 334.007812 235.949219 335.148438 240.386719 336.160156 L 227.035156 324.777344 "/><path style=" stroke:none;fill-rule:nonzero;fill:#700202;fill-opacity:1;" d="M 196.714844 298.902344 L 196.738281 299.011719 C 196.800781 299.304688 196.878906 299.582031 196.976562 299.847656 L 196.71875 298.902344 L 196.714844 298.902344 M 224.839844 235.273438 L 224.359375 235.292969 C 222.222656 235.375 220.757812 237.023438 219.96875 240.238281 C 218.636719 251.902344 217.117188 262.199219 215.417969 271.125 C 214.886719 274.074219 214.015625 277.210938 212.800781 280.535156 C 209.890625 287.339844 206.714844 292.703125 203.28125 296.632812 C 202.746094 297.488281 200.960938 299.09375 197.929688 301.449219 C 197.601562 301.113281 197.289062 300.59375 196.992188 299.894531 L 197.496094 301.734375 L 197.933594 301.453125 C 198.511719 302.101562 199.277344 302.609375 200.226562 302.972656 C 201.640625 303.515625 203.488281 303.730469 205.765625 303.621094 C 208.796875 303.636719 211.722656 302.898438 214.539062 301.40625 C 217.269531 300.09375 219.722656 298.390625 221.898438 296.296875 C 224.175781 294 225.96875 291.714844 227.28125 289.441406 L 228.183594 287.800781 C 228.765625 286.652344 229.3125 285.398438 229.820312 284.035156 C 230.328125 282.671875 230.796875 281.203125 231.230469 279.628906 C 232.621094 274.402344 233.488281 269.203125 233.839844 264.027344 C 234.191406 259.386719 234.378906 255.308594 234.402344 251.785156 C 234.453125 250.773438 234.332031 249.140625 234.039062 246.890625 C 233.375 242.980469 232.210938 240.042969 230.554688 238.074219 C 229.460938 236.882812 228.769531 236.226562 228.476562 236.109375 C 226.832031 235.492188 225.621094 235.214844 224.839844 235.273438 "/><path style=" stroke:none;fill-rule:nonzero;fill:#700202;fill-opacity:1;" d="M 216.597656 267.550781 L 216.503906 267.839844 C 216.0625 269.03125 214.0625 273.582031 210.507812 281.488281 C 209.058594 284.949219 208.25 286.957031 208.085938 287.519531 C 207.5625 289.078125 207.292969 289.984375 207.269531 290.238281 C 207.136719 290.808594 207.039062 291.351562 206.976562 291.871094 C 206.824219 292.800781 206.855469 293.851562 207.070312 295.011719 C 207.285156 295.8125 207.789062 296.210938 208.574219 296.210938 C 209.257812 296.21875 210.230469 295.882812 211.484375 295.207031 C 212.835938 294.402344 215.882812 291.640625 220.628906 286.921875 L 216.597656 267.550781 "/><path style=" stroke:none;fill-rule:nonzero;fill:#700202;fill-opacity:1;" d="M 205.09375 296.042969 L 204.9375 296.105469 C 204.515625 296.292969 204.09375 296.539062 203.671875 296.847656 C 202.148438 298.191406 201.082031 299.066406 200.472656 299.472656 C 200.152344 299.742188 199.046875 300.347656 197.152344 301.292969 L 197.050781 301.402344 C 197.003906 301.480469 196.992188 301.570312 197.015625 301.667969 C 197.179688 302.121094 197.816406 302.636719 198.917969 303.210938 C 199.359375 303.433594 199.796875 303.632812 200.226562 303.800781 C 200.449219 303.917969 201.074219 304.109375 202.105469 304.371094 C 203.824219 304.75 205.59375 304.5625 207.40625 303.804688 C 209 303.164062 210.738281 302.113281 212.621094 300.65625 L 205.09375 296.042969 "/><path style=" stroke:none;fill-rule:nonzero;fill:#700202;fill-opacity:1;" d="M 233.171875 175.371094 L 232.046875 175.496094 C 231.324219 175.664062 230.648438 176 230.023438 176.5 C 228.546875 178.046875 227.71875 179.175781 227.539062 179.886719 C 226.691406 181.539062 225.824219 184.570312 224.945312 188.988281 C 224.40625 191.957031 223.816406 196.257812 223.183594 201.886719 L 220.21875 237.410156 C 219.863281 239.769531 219.4375 242.257812 218.941406 244.875 C 218.683594 246.144531 218.492188 246.835938 218.363281 246.945312 L 234.304688 253.613281 C 234.753906 251.421875 235.429688 246.289062 236.335938 238.210938 L 238.558594 223.78125 C 238.714844 222.613281 238.855469 221.332031 238.976562 219.9375 C 239.140625 218.265625 239.269531 216.230469 239.363281 213.832031 L 239.683594 198.207031 C 239.847656 196.238281 240.027344 192.585938 240.226562 187.246094 C 240.007812 183.15625 239.214844 180.097656 237.855469 178.0625 C 237.398438 177.382812 236.882812 176.820312 236.300781 176.371094 L 235.382812 175.78125 C 234.441406 175.480469 233.703125 175.34375 233.171875 175.371094 "/><path style=" stroke:none;fill-rule:nonzero;fill:#700202;fill-opacity:1;" d="M 243.570312 124.210938 L 242.441406 124.375 C 239.546875 125.035156 237.054688 129.511719 234.96875 137.800781 C 234.554688 139.496094 234.019531 142.425781 233.363281 146.585938 L 226.675781 190.53125 L 237.242188 195.925781 C 238.226562 187.988281 238.796875 183.578125 238.960938 182.699219 C 243.183594 160.019531 245.574219 146.179688 246.125 141.171875 C 246.613281 135.730469 246.691406 132.019531 246.355469 130.039062 C 246.210938 128.800781 245.984375 127.75 245.675781 126.878906 L 245.152344 125.714844 C 244.820312 125.03125 244.292969 124.53125 243.570312 124.210938 "/><path style=" stroke:none;fill-rule:nonzero;fill:#700202;fill-opacity:1;" d="M 238.121094 143.710938 L 236.699219 145.023438 C 235.789062 145.96875 234.953125 147.050781 234.195312 148.269531 C 233.433594 149.488281 232.75 150.84375 232.140625 152.335938 L 231.285156 154.679688 L 230.542969 157.230469 L 229.914062 159.988281 C 229.175781 164.164062 228.804688 166.40625 228.796875 166.722656 C 228.078125 172.15625 227.714844 177.871094 227.707031 183.863281 C 227.742188 188.535156 228.304688 192.453125 229.398438 195.609375 L 238.121094 143.710938 "/><path style=" stroke:none;fill-rule:nonzero;fill:#700202;fill-opacity:1;" d="M 233.183594 161.550781 L 232.070312 163.273438 C 230.65625 165.574219 229.519531 167.894531 228.65625 170.242188 C 228.222656 171.414062 227.863281 172.59375 227.566406 173.777344 L 227.179688 175.558594 C 226.941406 176.953125 226.796875 177.941406 226.742188 178.519531 C 226.5625 180.101562 226.460938 181.761719 226.4375 183.492188 C 226.425781 184.359375 226.429688 185.242188 226.457031 186.148438 C 226.484375 187.050781 226.53125 187.972656 226.597656 188.914062 L 226.679688 189.757812 C 226.9375 191.945312 227.496094 193.628906 228.355469 194.8125 L 233.183594 161.550781 "/><path style=" stroke:none;fill-rule:nonzero;fill:#700202;fill-opacity:1;" d="M 245.082031 67.726562 L 244.980469 67.730469 C 244.113281 67.738281 243.394531 68.089844 242.824219 68.789062 C 242.636719 68.855469 242.289062 69.570312 241.78125 70.9375 C 241.605469 71.542969 241.464844 72.234375 241.363281 73.015625 C 241.171875 74.945312 241.082031 76.507812 241.085938 77.710938 C 241.011719 83.023438 241.035156 89.214844 241.152344 96.289062 C 241.097656 98.550781 240.972656 100.996094 240.785156 103.621094 C 240.464844 108.164062 240.109375 112.140625 239.722656 115.550781 L 238.441406 125.179688 C 237.40625 131.089844 236.800781 135.039062 236.628906 137.03125 L 244.78125 138.128906 C 246.917969 134.574219 248.125 131.617188 248.40625 129.257812 C 248.515625 128.035156 248.578125 126.800781 248.589844 125.554688 C 248.453125 119.605469 248.472656 113.507812 248.644531 107.269531 L 249.550781 88.726562 C 249.601562 87.589844 249.628906 86.371094 249.632812 85.070312 C 249.464844 79.933594 249.070312 75.933594 248.453125 73.082031 C 248.144531 71.652344 247.777344 70.511719 247.355469 69.652344 L 246.683594 68.582031 C 246.203125 68.011719 245.671875 67.726562 245.082031 67.726562 "/><path style=" stroke:none;fill-rule:nonzero;fill:#700202;fill-opacity:1;" d="M 236.886719 28.171875 L 236.792969 28.171875 C 236.535156 28.257812 236.316406 28.398438 236.132812 28.59375 C 235.992188 28.625 235.796875 29.042969 235.546875 29.847656 C 235.375 30.421875 235.382812 31.515625 235.570312 33.121094 C 235.777344 34.574219 236.59375 38.175781 238.019531 43.925781 C 238.402344 45.78125 238.8125 48.015625 239.25 50.617188 C 239.53125 52.335938 239.726562 53.785156 239.84375 54.96875 C 240.292969 61.824219 240.605469 65.792969 240.78125 66.871094 C 241.148438 69.332031 241.839844 72.285156 242.851562 75.738281 L 247.675781 74.441406 C 247.945312 73.363281 248.125 72.183594 248.207031 70.90625 C 248.253906 70.617188 248.261719 69.605469 248.226562 67.863281 C 248.195312 67.152344 248.140625 66.414062 248.058594 65.648438 C 247.882812 64.152344 247.621094 62.355469 247.265625 60.257812 C 246.582031 56.378906 246 53.289062 245.515625 50.984375 C 245.058594 47.015625 244.6875 44.152344 244.394531 42.390625 C 244.367188 42.003906 244.042969 40.53125 243.425781 37.972656 L 242.78125 35.675781 C 241.890625 32.816406 240.867188 30.773438 239.714844 29.550781 C 239.136719 28.9375 238.523438 28.527344 237.878906 28.324219 L 236.886719 28.171875 "/><path style=" stroke:none;fill-rule:nonzero;fill:#700202;fill-opacity:1;" d="M 226.992188 9.582031 L 226.875 9.582031 C 226.5625 9.59375 226.253906 9.652344 225.957031 9.753906 C 225.695312 9.886719 225.480469 10.046875 225.3125 10.234375 L 225.089844 10.542969 C 224.71875 11.199219 224.757812 12.125 225.199219 13.3125 C 225.363281 13.695312 225.675781 14.265625 226.132812 15.015625 L 229.796875 20.734375 C 230.117188 21.253906 230.761719 22.40625 231.734375 24.199219 C 233.914062 28.167969 235.882812 32.226562 237.636719 36.375 L 241.304688 34.867188 C 241.410156 32.109375 240.953125 29.441406 239.9375 26.859375 C 239.816406 26.394531 237.96875 22.726562 234.394531 15.859375 L 233.476562 14.542969 C 231.054688 11.234375 228.894531 9.582031 226.992188 9.582031 "/><path style=" stroke:none;fill-rule:nonzero;fill:#700202;fill-opacity:1;" d="M 231.882812 23.726562 L 232.265625 24.734375 C 232.957031 26.542969 233.542969 28 234.023438 29.105469 C 236.011719 33.355469 237.285156 35.84375 237.84375 36.574219 C 238.671875 37.816406 239.84375 38.699219 241.363281 39.21875 L 231.882812 23.726562 "/><path style=" stroke:none;fill-rule:nonzero;fill:#700202;fill-opacity:1;" d="M 233.121094 28.070312 L 233.183594 28.347656 C 233.324219 28.835938 233.429688 29.136719 233.492188 29.253906 C 233.582031 29.46875 233.6875 29.691406 233.804688 29.921875 C 234.035156 30.375 234.339844 30.878906 234.710938 31.441406 C 235.074219 31.988281 235.429688 32.46875 235.773438 32.886719 C 235.945312 33.09375 236.113281 33.285156 236.28125 33.460938 L 236.53125 33.710938 C 236.738281 33.90625 236.859375 34.011719 236.898438 34.027344 C 237.105469 34.15625 237.273438 34.195312 237.402344 34.148438 C 237.566406 34.074219 237.683594 33.960938 237.753906 33.8125 C 237.839844 33.648438 237.902344 33.417969 237.941406 33.121094 C 237.984375 32.9375 237.988281 32.460938 237.960938 31.695312 L 233.121094 28.070312 "/><path style=" stroke:none;fill-rule:nonzero;fill:#700202;fill-opacity:1;" d="M 211.777344 1.777344 L 211.269531 1.785156 C 209.949219 1.824219 208.847656 2.023438 207.964844 2.378906 C 207.40625 2.679688 207.148438 2.886719 207.183594 3.007812 C 207.136719 3.171875 207.21875 3.332031 207.429688 3.488281 C 207.542969 3.566406 207.78125 3.644531 208.148438 3.730469 C 210.203125 4.09375 211.445312 4.355469 211.875 4.511719 C 213.695312 5.148438 215.230469 5.882812 216.472656 6.722656 C 219.460938 8.5625 223.210938 11.539062 227.726562 15.652344 L 232.171875 13.757812 L 231.355469 12.34375 C 230.78125 11.425781 230.148438 10.566406 229.457031 9.757812 C 228.765625 8.953125 228.015625 8.203125 227.210938 7.507812 C 226.402344 6.8125 225.535156 6.175781 224.609375 5.589844 L 223.179688 4.753906 C 221.367188 3.84375 220.046875 3.261719 219.226562 3.003906 C 218.183594 2.636719 217.191406 2.363281 216.253906 2.1875 C 214.449219 1.90625 212.957031 1.769531 211.777344 1.777344 "/><path style=" stroke:none;fill-rule:nonzero;fill:#700202;fill-opacity:1;" d="M 215.074219 1.796875 L 214.957031 1.796875 L 214.554688 1.804688 L 220.203125 7.15625 C 221.035156 9.375 222.113281 11.101562 223.433594 12.332031 C 224.90625 13.605469 226.488281 14.644531 228.183594 15.445312 C 228.703125 15.675781 229.203125 15.859375 229.679688 15.988281 C 230.011719 16.117188 230.621094 16.203125 231.511719 16.25 L 232.015625 16.222656 C 232.328125 16.191406 232.585938 16.121094 232.789062 16.019531 C 232.996094 15.917969 233.148438 15.785156 233.246094 15.617188 C 233.441406 15.277344 233.425781 14.804688 233.199219 14.195312 C 232.761719 13.113281 232.445312 12.445312 232.242188 12.199219 C 231.960938 11.734375 231.628906 11.257812 231.253906 10.769531 C 230.5 9.789062 229.554688 8.753906 228.425781 7.667969 L 226.988281 6.4375 C 226.027344 5.664062 225.058594 4.988281 224.082031 4.40625 C 223.105469 3.828125 222.121094 3.34375 221.128906 2.957031 C 220.132812 2.570312 219.132812 2.28125 218.125 2.089844 L 216.605469 1.871094 L 215.074219 1.796875 "/><path style=" stroke:none;fill-rule:nonzero;fill:#700202;fill-opacity:1;" d="M 234.996094 331.640625 L 235.121094 333.113281 C 235.40625 336.132812 235.597656 337.886719 235.695312 338.378906 C 235.761719 338.847656 235.832031 339.226562 235.894531 339.507812 C 235.902344 339.441406 236.019531 339.980469 236.246094 341.128906 C 236.582031 342.722656 236.886719 343.949219 237.15625 344.800781 C 237.386719 345.613281 237.667969 346.140625 238.007812 346.382812 C 239.117188 347.203125 240.800781 345.183594 243.0625 340.320312 L 234.996094 331.640625 "/><path style=" stroke:none;fill-rule:nonzero;fill:#700202;fill-opacity:1;" d="M 237.445312 338.507812 L 237.425781 338.660156 C 237.367188 339.066406 237.292969 339.519531 237.199219 340.019531 C 236.652344 342.550781 236.351562 344.019531 236.300781 344.425781 L 236.292969 344.527344 C 236.085938 346.128906 235.972656 347.019531 235.957031 347.207031 C 235.898438 347.71875 235.851562 348.175781 235.816406 348.574219 C 235.742188 349.375 235.710938 349.953125 235.722656 350.308594 L 235.734375 350.625 C 235.742188 350.824219 235.761719 351.011719 235.785156 351.1875 C 235.808594 351.359375 235.839844 351.515625 235.875 351.660156 C 235.949219 351.945312 236.050781 352.171875 236.175781 352.34375 C 236.460938 352.6875 236.960938 352.839844 237.667969 352.800781 L 237.445312 338.507812 "/><path style=" stroke:none;fill-rule:nonzero;fill:#700202;fill-opacity:1;" d="M 238.226562 338.960938 L 237.898438 339.769531 C 237.058594 341.855469 236.503906 343.375 236.234375 344.328125 C 236.039062 345.011719 235.882812 345.648438 235.765625 346.234375 C 235.707031 346.527344 235.65625 346.808594 235.617188 347.078125 C 235.574219 347.34375 235.546875 347.601562 235.523438 347.84375 L 235.5 348.199219 C 235.464844 348.957031 235.460938 349.636719 235.496094 350.238281 C 235.515625 350.539062 235.539062 350.820312 235.574219 351.082031 C 235.609375 351.34375 235.65625 351.585938 235.707031 351.808594 L 235.792969 352.128906 C 235.859375 352.332031 235.933594 352.519531 236.019531 352.691406 C 236.050781 352.796875 236.203125 353.019531 236.476562 353.359375 C 236.710938 353.609375 236.984375 353.796875 237.296875 353.921875 L 238.230469 338.960938 L 238.226562 338.960938 "/><path style=" stroke:none;fill-rule:nonzero;fill:#700202;fill-opacity:1;" d="M 237.28125 340.234375 L 236.917969 341.125 C 236.6875 341.707031 236.484375 342.257812 236.3125 342.777344 C 236.136719 343.296875 235.988281 343.785156 235.871094 344.242188 L 235.710938 344.90625 L 235.589844 345.527344 L 235.515625 346.101562 L 235.476562 346.628906 L 235.472656 347.292969 L 235.507812 347.929688 L 235.585938 348.542969 L 235.703125 349.128906 L 235.867188 349.691406 C 236.109375 350.421875 236.460938 351.085938 236.925781 351.683594 L 237.285156 340.234375 L 237.28125 340.234375 "/><path style=" stroke:none;fill-rule:nonzero;fill:#000000;fill-opacity:1;" d="M 225.484375 224.609375 L 225.371094 227.078125 L 225.25 229.8125 L 224.882812 238.015625 L 224.890625 238.222656 L 225.378906 227.289062 L 225.484375 224.609375 M 218.875 4.054688 L 219.792969 4.53125 C 227.535156 9.066406 234.4375 20.25 240.496094 38.082031 C 241.027344 39.679688 242.035156 45.042969 243.515625 54.167969 L 245.613281 72.371094 C 246.945312 86.023438 247.65625 97.75 247.738281 107.550781 C 246.917969 112.996094 245.917969 118.441406 244.746094 123.886719 L 236.320312 161.382812 L 235.144531 165.476562 L 227.320312 202.203125 L 225.578125 214.917969 C 225.351562 216.632812 225.144531 218.460938 224.953125 220.410156 C 224.777344 222.222656 224.648438 224.019531 224.574219 225.800781 C 224.617188 228.148438 224.457031 232.539062 224.097656 238.976562 C 223.761719 242.910156 223.636719 242.109375 223.722656 236.570312 L 223.363281 244.539062 C 223.277344 244.835938 223.347656 242.5625 223.578125 237.71875 C 223.296875 238.558594 223.109375 239.625 223.003906 240.914062 L 222.152344 259.8125 C 221.640625 266.132812 221.070312 270.554688 220.441406 273.078125 C 219.347656 278.300781 217.453125 283.191406 214.753906 287.738281 L 211.769531 292.050781 L 205.695312 298.898438 C 209.78125 295.664062 212.480469 293.105469 213.796875 291.226562 C 214.179688 290.800781 214.25 290.890625 214.019531 291.488281 L 216.28125 288.554688 C 219.078125 283.808594 221.039062 278.742188 222.152344 273.351562 C 222.796875 270.710938 223.375 266.191406 223.886719 259.796875 L 225.105469 232.457031 C 225.175781 228.277344 225.253906 225.671875 225.335938 224.632812 C 226 216.019531 226.445312 210.96875 226.667969 209.480469 C 227.605469 203.105469 229.871094 191.496094 233.464844 174.652344 L 233.546875 174.859375 C 231.53125 184.402344 229.902344 192.425781 228.660156 198.929688 L 233.277344 176.496094 L 229.277344 196.066406 L 229.210938 196.695312 L 230.914062 190.144531 C 228.371094 202.730469 226.859375 211.597656 226.378906 216.746094 L 226.484375 217.199219 L 225.910156 224.128906 L 224.808594 248.699219 C 224.792969 250.105469 224.902344 249.839844 225.140625 247.910156 L 225.347656 258.195312 L 225.550781 258.40625 C 225.738281 257.984375 225.9375 256.320312 226.148438 253.417969 L 227.414062 225.039062 L 227.835938 219.78125 C 229.261719 208.46875 230.699219 199.351562 232.152344 192.425781 C 232.339844 190.5625 232.261719 190.257812 231.917969 191.503906 L 229.582031 200.675781 C 230.417969 195.921875 233.140625 182.625 237.753906 160.789062 L 240.71875 147.429688 C 241.101562 145.832031 241.3125 144.46875 241.347656 143.34375 L 246.101562 122.007812 L 247.8125 111.859375 L 248.699219 108.695312 L 248.984375 106.085938 C 247.898438 77.523438 245.382812 55.304688 241.441406 39.433594 L 239.585938 34.183594 C 238.558594 31.421875 236.90625 27.660156 234.632812 22.898438 L 234.957031 23.214844 L 231.082031 16.09375 C 226.179688 8.636719 222.109375 4.621094 218.875 4.054688 "/><path style=" stroke:none;fill-rule:nonzero;fill:#000000;fill-opacity:1;" d="M 226.941406 264.492188 L 226.660156 266.367188 L 226.257812 268.875 L 225.714844 271.746094 L 226.121094 269.761719 L 226.535156 267.28125 L 226.941406 264.492188 M 242.460938 145.988281 L 241.796875 147.152344 C 241.640625 148.8125 240.835938 154.175781 239.386719 163.234375 C 237.578125 172.660156 236.488281 177.964844 236.117188 179.144531 C 235.128906 184.6875 234.28125 190.042969 233.574219 195.210938 C 232.394531 204.835938 231.21875 216.574219 230.046875 230.429688 C 229.726562 231.78125 229.5 233.355469 229.371094 235.152344 L 228.667969 243.585938 C 228.414062 245.503906 228.125 247.25 227.800781 248.832031 C 227.28125 253.054688 227.066406 255.597656 227.152344 256.449219 L 225.402344 269.605469 L 224.78125 272.257812 C 224.480469 272.84375 224.4375 272.363281 224.652344 270.824219 L 224.105469 273.179688 L 224.023438 273.1875 L 224.457031 271.136719 L 223.765625 272.398438 C 223.007812 275.804688 221.910156 279.089844 220.46875 282.253906 C 219.71875 283.863281 218.878906 285.386719 217.957031 286.824219 C 215.4375 290.339844 213.808594 292.351562 213.066406 292.855469 L 207.050781 298.167969 C 208 297.761719 209.734375 296.808594 212.246094 295.308594 L 212.8125 295.359375 C 213.929688 294.492188 215.121094 293.316406 216.390625 291.828125 C 218.398438 289.882812 220.683594 285.988281 223.238281 280.140625 C 224.503906 276.734375 225.460938 273.21875 226.101562 269.601562 L 227.171875 261.804688 C 227.277344 260.285156 227.351562 258.695312 227.382812 257.035156 C 228.847656 245.101562 229.554688 238.625 229.496094 237.609375 C 229.53125 239.84375 229.121094 244.335938 228.261719 251.078125 C 228.996094 245.519531 229.4375 241.449219 229.585938 238.871094 C 229.285156 242.765625 228.902344 246.546875 228.429688 250.21875 L 229.285156 246.785156 L 227.660156 260.347656 L 227.800781 261.1875 C 227.335938 264.886719 226.753906 268.519531 226.050781 272.074219 C 225.710938 273.601562 225.261719 275.308594 224.707031 277.199219 L 225.371094 276.136719 C 225.109375 277.6875 224.785156 279.203125 224.398438 280.6875 L 224.324219 281.796875 L 225.179688 280.449219 C 225.527344 279.996094 226.28125 277.496094 227.441406 272.945312 C 227.894531 271.84375 228.699219 266.671875 229.855469 257.425781 L 230.691406 249.90625 L 230.832031 247.699219 L 230.472656 247.351562 L 229.46875 251.964844 L 229.515625 250.933594 C 230.238281 245.214844 230.78125 239.597656 231.144531 234.078125 C 231.019531 234.285156 231.285156 230.699219 231.945312 223.324219 L 231.824219 221.3125 C 232.730469 212.070312 233.164062 206.847656 233.121094 205.648438 L 233.636719 203.867188 C 234.363281 197.777344 234.921875 193.503906 235.3125 191.050781 C 236.554688 182.824219 237.613281 176.542969 238.488281 172.210938 L 239.863281 161.550781 C 240.15625 159.21875 240.382812 158.144531 240.550781 158.320312 L 242.460938 145.988281 "/><path style=" stroke:none;fill-rule:nonzero;fill:#000000;fill-opacity:1;" d="M 225.15625 289.484375 L 224.933594 289.804688 L 224.714844 290.125 L 223.8125 291.207031 C 224.261719 290.632812 224.707031 290.058594 225.15625 289.484375 M 226.863281 248.855469 L 226.9375 249.132812 C 227.265625 250.136719 227.898438 252.84375 228.832031 257.261719 L 229.433594 262.410156 C 229.769531 266.890625 229.917969 269.527344 229.878906 270.316406 C 230.066406 275.867188 229.066406 281.09375 226.882812 286 L 224.03125 290.171875 C 222.789062 291.238281 221.65625 292.394531 220.628906 293.644531 C 219.316406 294.765625 217.925781 295.789062 216.460938 296.714844 L 214.1875 297.628906 L 214.261719 297.234375 L 214.816406 296.84375 L 212.765625 297.292969 C 211.089844 297.953125 209.421875 298.476562 207.765625 298.867188 L 205.265625 299.394531 C 203.359375 299.601562 201.730469 299.945312 200.371094 300.429688 L 202.628906 300.785156 L 203.792969 301.367188 L 206.394531 300.941406 C 209.953125 300.269531 213.34375 299.101562 216.566406 297.441406 L 218.78125 295.988281 C 219.84375 294.8125 221.0625 293.636719 222.433594 292.464844 C 223.667969 291.199219 224.757812 289.816406 225.699219 288.308594 L 224.5 290.300781 L 222.773438 292.328125 L 223.394531 291.714844 L 223.003906 292.179688 L 224.085938 291.640625 L 222.265625 293.566406 C 220.664062 294.867188 219.5 295.894531 218.777344 296.640625 C 217.203125 297.640625 215.59375 298.476562 213.941406 299.144531 C 213.871094 299.5 213.035156 300.191406 211.429688 301.21875 L 213.53125 300.976562 C 215.457031 300.226562 217.046875 299.484375 218.300781 298.742188 C 220.050781 297.742188 221.648438 296.59375 223.089844 295.300781 L 224.863281 293.425781 L 224.1875 293.148438 L 223.367188 293.480469 C 224.683594 292.152344 225.835938 290.679688 226.828125 289.070312 L 228.097656 286.597656 L 229.078125 284.085938 C 229.308594 282.566406 229.667969 280.84375 230.148438 278.917969 C 230.285156 277.058594 230.53125 275.519531 230.886719 274.304688 C 231.019531 272.367188 231.050781 270.523438 230.980469 268.78125 C 231.0625 267.972656 230.777344 265.207031 230.117188 260.484375 C 229.5625 259.035156 229.101562 257.472656 228.730469 255.792969 L 228.519531 253.917969 L 227.863281 251.183594 L 226.863281 248.855469 "/><path style=" stroke:none;fill-rule:nonzero;fill:#000000;fill-opacity:1;" d="M 224.039062 215.855469 L 223.847656 217.1875 C 223.570312 219.089844 223.300781 220.894531 223.039062 222.605469 L 222.621094 225.304688 L 222.171875 228.078125 L 221.960938 229.4375 L 222.402344 226.769531 L 222.855469 223.921875 L 223.246094 221.355469 C 223.519531 219.582031 223.785156 217.746094 224.039062 215.855469 M 217.621094 3.617188 L 219.449219 5.316406 C 227.699219 14.183594 234.015625 25.941406 238.386719 40.59375 C 241.726562 52.027344 243.914062 61.566406 244.953125 69.207031 C 245.535156 72.859375 245.917969 76.460938 246.109375 80.007812 C 246.238281 81.09375 246.226562 83.71875 246.070312 87.886719 C 245.742188 94.0625 244.625 102.1875 242.71875 112.261719 C 238.058594 130.21875 234.554688 144.484375 232.207031 155.050781 L 231.050781 159.042969 L 229.390625 167.230469 L 227.691406 180.707031 L 226.871094 185.429688 L 225.558594 196.167969 C 225.464844 197.738281 225.34375 199.324219 225.199219 200.9375 L 222.753906 219.570312 C 221.675781 226.808594 221.113281 230.300781 221.054688 230.042969 L 220.515625 232.402344 L 220.921875 228.109375 L 219.773438 234.351562 C 220.917969 228.53125 220.988281 227.285156 219.992188 230.617188 C 216.429688 248.101562 213.203125 262.152344 210.308594 272.769531 C 209.234375 277.179688 207.304688 283.066406 204.515625 290.441406 C 205.726562 288.832031 207.316406 285.460938 209.277344 280.332031 C 209.515625 279.785156 209.632812 279.800781 209.632812 280.371094 C 210.074219 279.648438 210.515625 278.480469 210.957031 276.863281 C 213.304688 268.917969 216.5 255.589844 220.542969 236.882812 C 222.292969 227.78125 223.667969 218.9375 224.664062 210.347656 L 225.542969 200.621094 L 229.5625 167.953125 L 229.734375 167.621094 L 226.84375 191.738281 C 226.785156 192.617188 227.691406 185.136719 229.566406 169.285156 L 227.289062 188.457031 L 227.257812 189.179688 L 228.441406 182.753906 C 227.230469 192.785156 226.199219 200.949219 225.347656 207.257812 C 225.113281 209.335938 225.117188 210.007812 225.359375 209.265625 C 223.222656 224.652344 221.613281 234.570312 220.523438 239.019531 L 220.535156 239.558594 L 221.09375 237.90625 L 219.367188 248.742188 C 220.207031 247.574219 221.285156 243.570312 222.59375 236.726562 C 223.542969 233.550781 225.492188 220.539062 228.441406 197.691406 L 229.839844 185.632812 C 229.929688 184.25 229.898438 183.21875 229.738281 182.539062 L 227.851562 193.394531 C 228.65625 186.96875 229.632812 178.808594 230.785156 168.917969 C 232.839844 157.863281 234.890625 148.332031 236.945312 140.324219 L 237.652344 136.136719 C 241.273438 122.113281 243.8125 111.480469 245.265625 104.234375 C 246.648438 95.089844 247.292969 89.628906 247.207031 87.859375 C 247.785156 74.699219 245.050781 58.890625 239.003906 40.433594 L 236.171875 32.863281 L 231.949219 23.496094 L 232.15625 23.5625 C 232.132812 23.289062 230.996094 21.125 228.75 17.066406 C 224.070312 9.492188 220.359375 5.011719 217.621094 3.617188 "/><path style=" stroke:none;fill-rule:nonzero;fill:#000000;fill-opacity:1;" d="M 239.976562 336.867188 L 240.296875 337.800781 L 240.613281 338.730469 C 240.636719 338.851562 240.660156 338.96875 240.683594 339.089844 C 240.449219 338.347656 240.214844 337.609375 239.976562 336.867188 M 225.121094 324.304688 L 227.363281 325.632812 L 228.640625 326.632812 C 230.230469 327.144531 231.859375 327.949219 233.519531 329.054688 C 234.933594 330.175781 236.246094 331.394531 237.457031 332.707031 L 239.230469 334.652344 L 240.363281 337.210938 L 241.089844 339.9375 L 239.730469 336.140625 L 239.847656 336.476562 L 239.53125 336.898438 L 238.347656 334.464844 L 235.113281 330.957031 L 233.820312 330.207031 L 231.878906 329.824219 L 236.300781 334.664062 C 237.105469 336.011719 237.882812 337.21875 238.632812 338.285156 L 238.609375 336.511719 L 239.445312 338.921875 L 239.957031 341.589844 C 240.203125 343.421875 240.375 345.117188 240.464844 346.675781 C 240.179688 348.503906 239.863281 350.214844 239.527344 351.808594 L 238.300781 353.835938 L 237.078125 356.355469 C 236.265625 357.996094 235.371094 359.558594 234.398438 361.042969 L 233.261719 363.316406 L 231.726562 365.464844 L 230.199219 366.890625 L 228.742188 368.894531 C 229.773438 368.171875 232.34375 365.144531 236.453125 359.816406 C 237.402344 358.230469 238.277344 356.574219 239.078125 354.847656 L 240.167969 352.195312 L 240.953125 349.527344 L 241.421875 346.753906 C 241.515625 344.832031 241.574219 342.988281 241.601562 341.234375 C 241.242188 339.222656 240.839844 337.390625 240.394531 335.734375 L 238.847656 333.421875 C 237.355469 331.808594 236.371094 330.578125 235.894531 329.730469 C 235.785156 329.4375 235.71875 329.046875 235.695312 328.554688 C 232.300781 325.878906 228.777344 324.464844 225.121094 324.304688 "/><path style=" stroke:none;fill-rule:nonzero;fill:#000000;fill-opacity:1;" d="M 237.644531 329.4375 L 237.96875 331.199219 L 239.78125 333.539062 L 241.117188 335.683594 C 241.980469 337.367188 242.898438 339.019531 243.875 340.636719 L 244.613281 343.300781 L 244.605469 346.164062 L 244.527344 344.175781 L 244.460938 343.914062 L 244.429688 345.734375 L 244.347656 342.984375 L 243.859375 342.699219 L 243.082031 340.332031 L 241.882812 338.003906 L 240.714844 336.417969 L 239.171875 335.964844 C 239.796875 337.308594 240.507812 338.773438 241.300781 340.359375 L 242.035156 342.484375 L 242.769531 343.953125 L 243.257812 343.578125 L 243.21875 346.152344 C 242.933594 347.886719 242.582031 349.550781 242.160156 351.140625 L 241.082031 353.582031 C 240.238281 354.667969 239.253906 356.015625 238.132812 357.625 L 236.464844 359.679688 L 234.535156 361.640625 L 232.960938 363.625 L 231.230469 364.867188 L 229.347656 366.683594 C 234.007812 363.261719 236.488281 361.339844 236.796875 360.914062 L 238.621094 358.832031 L 240.292969 356.582031 L 241.734375 354.195312 L 242.96875 351.691406 C 243.65625 349.941406 244.292969 348.191406 244.875 346.449219 L 245.199219 343.613281 L 244.457031 340.898438 L 243.21875 338.179688 L 243.085938 336.890625 L 243.3125 336.554688 L 242.230469 334.164062 L 240.683594 331.816406 L 238.695312 329.449219 L 237.644531 329.4375 "/><path style=" stroke:none;fill-rule:nonzero;fill:#000000;fill-opacity:1;" d="M 213.027344 13.441406 L 213.734375 15.292969 C 214.714844 17.042969 215.628906 18.585938 216.476562 19.917969 L 217.75 22.425781 L 217.023438 21.054688 L 217.644531 22.410156 C 217.289062 21.972656 216.640625 20.886719 215.699219 19.152344 L 214.605469 17.503906 L 214.496094 18.230469 L 215.640625 20.417969 L 216.554688 21.535156 L 217.386719 22.972656 C 218.097656 24.542969 218.875 26.070312 219.714844 27.5625 L 220.566406 30.027344 L 221.554688 32.464844 L 222.683594 34.820312 L 223.585938 37.039062 C 222.878906 35.226562 222.273438 33.503906 221.769531 31.871094 L 220.828125 29.449219 L 217.636719 21.90625 C 216.6875 20.039062 216.066406 18.71875 215.777344 17.9375 L 215.496094 16.925781 L 214.042969 14.453125 L 213.027344 13.441406 "/><path style=" stroke:none;fill-rule:nonzero;fill:#000000;fill-opacity:1;" d="M 226.296875 62.402344 L 225.84375 64.410156 L 226.265625 67.058594 L 226.238281 67.550781 L 226.09375 67.78125 L 225.757812 65.429688 L 225.148438 65.722656 L 225.601562 67.683594 L 225.925781 69.867188 L 226.121094 72.308594 L 226.242188 75.152344 L 226.597656 77.339844 L 226.59375 77.136719 L 226.613281 74.59375 C 226.570312 72.753906 226.535156 70.90625 226.507812 69.042969 L 226.332031 66.230469 L 226.597656 64.972656 L 226.296875 62.402344 "/><path style=" stroke:none;fill-rule:nonzero;fill:#000000;fill-opacity:1;" d="M 185.070312 257.210938 L 184.984375 259.171875 L 185.832031 261.824219 L 186.871094 264.234375 L 186.863281 264.394531 L 186.996094 264.851562 L 186.304688 263.417969 L 185.40625 261.082031 L 184.910156 261.589844 L 185.75 264.003906 L 186.429688 264.667969 L 187.371094 267.132812 L 188.511719 269.523438 L 189.347656 272.011719 C 190.191406 273.6875 190.9375 275.132812 191.59375 276.347656 L 191.269531 275.648438 L 190.269531 273.230469 C 189.664062 271.589844 189.003906 269.886719 188.289062 268.113281 C 187.773438 266.425781 187.226562 264.785156 186.644531 263.191406 L 186.214844 261.421875 L 185.925781 259.824219 L 185.070312 257.210938 "/><path style=" stroke:none;fill-rule:nonzero;fill:#000000;fill-opacity:1;" d="M 199.007812 261.886719 L 198.214844 263.980469 L 197.980469 265.566406 L 197.871094 265.078125 L 197.636719 262.882812 L 197.316406 265.371094 L 197.289062 267.210938 L 196.695312 269.699219 L 196.382812 272.464844 C 196.667969 271.351562 197.058594 269.796875 197.554688 267.804688 L 198.3125 265.417969 L 198.949219 263.71875 L 199.007812 261.886719 "/><path style=" stroke:none;fill-rule:nonzero;fill:#000000;fill-opacity:1;" d="M 148.421875 53.925781 L 147.230469 55.191406 L 146.410156 57.660156 L 145.832031 60.179688 L 145.90625 59.644531 L 145.878906 59.613281 L 146.375 55.933594 L 145.460938 57.929688 L 145.398438 59.386719 L 144.898438 61.507812 L 144.375 64.101562 L 143.644531 66.609375 C 143.324219 68.527344 143.050781 70.273438 142.816406 71.847656 L 143.226562 69.871094 L 143.976562 67.203125 L 144.640625 64.480469 L 145.359375 61.828125 L 146.300781 59.425781 L 146.964844 57.179688 L 147.585938 56.316406 L 148.421875 53.925781 "/><path style=" stroke:none;fill-rule:nonzero;fill:#000000;fill-opacity:1;" d="M 132.347656 78.589844 L 131.90625 79.972656 L 132.394531 81.550781 L 131.960938 80.765625 L 131.214844 80.601562 L 132.078125 82.453125 L 132.71875 84.792969 L 133.632812 87.429688 C 133.625 87.359375 133.167969 84.988281 132.265625 80.320312 L 132.347656 78.589844 "/><path style=" stroke:none;fill-rule:nonzero;fill:#000000;fill-opacity:1;" d="M 191.238281 105.296875 L 189.882812 107.144531 L 189.574219 107.648438 L 189.75 105.628906 L 189.175781 107.390625 L 188.089844 109.773438 L 187.171875 112.273438 C 187.277344 112.054688 187.882812 110.960938 189 108.988281 L 190.277344 106.617188 L 191.238281 105.296875 "/><path style=" stroke:none;fill-rule:nonzero;fill:#000000;fill-opacity:1;" d="M 184.925781 138.230469 L 184.757812 137.855469 L 184.589844 137.484375 C 184.945312 137.507812 185.300781 137.527344 185.65625 137.550781 L 184.925781 138.230469 "/><path style=" stroke:none;fill-rule:nonzero;fill:#000000;fill-opacity:1;" d="M 165.964844 134.554688 L 165.5625 134.648438 L 165.164062 134.742188 C 165.46875 135.511719 165.777344 136.28125 166.085938 137.050781 C 166.125 136.597656 166.164062 136.144531 166.207031 135.691406 C 166.125 135.3125 166.042969 134.933594 165.964844 134.554688 "/><path style=" stroke:none;fill-rule:nonzero;fill:#000000;fill-opacity:1;" d="M 205.207031 335.132812 L 203.5 337.410156 L 204.976562 336.09375 L 206.800781 335.257812 L 205.441406 335.554688 L 205.207031 335.132812 "/><path style=" stroke:none;fill-rule:nonzero;fill:#000000;fill-opacity:1;" d="M 197.433594 350.511719 L 198.234375 353.1875 L 199.382812 355.570312 L 199.320312 355.628906 L 198.699219 354.628906 L 197.714844 352.664062 L 197.671875 354.015625 L 198.546875 355.019531 L 199.703125 357.464844 L 200.9375 359.574219 L 202.671875 361.65625 L 204.71875 363.117188 L 202.847656 361.386719 L 201.300781 359.28125 L 200.039062 356.976562 C 199.414062 355.152344 198.925781 353.714844 198.574219 352.671875 L 198.242188 350.824219 L 197.433594 350.511719 "/><path style=" stroke:none;fill-rule:nonzero;fill:#000000;fill-opacity:1;" d="M 230.835938 345.480469 L 230.507812 348.070312 L 230.226562 348.808594 L 230.253906 347.480469 L 229.839844 346.449219 L 229.929688 348.066406 L 229.3125 350.785156 L 228.375 353.011719 L 227.4375 355.660156 C 227.503906 355.496094 228.097656 354.324219 229.226562 352.136719 L 230.117188 349.761719 L 230.832031 346.984375 L 231.527344 345.597656 L 230.835938 345.480469 "/><g clip-rule="nonzero" clip-path="url(#447d43ebcb)"><path style=" stroke:none;fill-rule:nonzero;fill:#000000;fill-opacity:1;" d="M 215.742188 2.636719 L 217.382812 2.652344 C 228.230469 4.558594 236.457031 15.828125 242.058594 36.453125 C 244.21875 46.707031 245.820312 58.667969 246.863281 72.339844 C 247.257812 78.003906 247.488281 83.683594 247.5625 89.375 L 247.238281 113.167969 C 247.195312 114.878906 247.265625 114.773438 247.449219 112.851562 C 246.835938 122.949219 243.871094 146.296875 238.558594 182.894531 L 232.101562 255.46875 C 231.339844 266.03125 231.386719 266.851562 232.242188 257.929688 L 231.679688 264.445312 C 231.234375 269.253906 230.464844 273.996094 229.371094 278.679688 C 225.839844 295.136719 216.832031 303.429688 202.347656 303.5625 C 198.078125 303.550781 194.058594 300.867188 190.285156 295.519531 C 189.253906 295.617188 185.035156 285.035156 177.632812 263.773438 L 149.1875 175.746094 L 146.175781 167.011719 L 146.460938 168.265625 L 150.269531 180.515625 L 152.859375 188.90625 L 152.636719 188.253906 L 132.492188 125.917969 C 127.738281 109.097656 125.765625 95.53125 126.574219 85.214844 C 127.390625 64.382812 137.910156 44.355469 158.136719 25.128906 C 166.261719 17.605469 174.75 11.894531 183.59375 7.992188 C 193.703125 4.433594 204.421875 2.648438 215.742188 2.636719 M 216.148438 -0.0078125 L 213.152344 0.078125 C 202.402344 0.304688 191.300781 2.878906 179.851562 7.800781 C 175.570312 9.824219 172.28125 11.664062 169.996094 13.328125 C 168.652344 14.3125 168.933594 14.339844 170.835938 13.417969 C 165.535156 16.773438 160.019531 21.230469 154.300781 26.789062 C 135.332031 45.296875 125.535156 65.539062 124.914062 87.511719 C 124.402344 97.761719 126.585938 111.382812 131.472656 128.371094 L 167.375 239.292969 C 173.164062 257.1875 176.425781 266.949219 177.160156 268.574219 L 185.746094 290.832031 C 187.578125 294.714844 189.140625 297.363281 190.433594 298.777344 C 194.046875 304.226562 200.019531 306.242188 208.339844 304.824219 C 198.960938 307.484375 191.492188 303.21875 185.929688 292.035156 C 186.394531 293.65625 187.359375 295.503906 188.820312 297.574219 C 192.382812 303.226562 197.617188 306.03125 204.523438 305.988281 C 214.796875 303.707031 220.945312 300.992188 222.960938 297.84375 C 226.953125 293.523438 229.902344 287.476562 231.808594 279.707031 C 232.976562 274.953125 233.804688 270.164062 234.300781 265.332031 L 241.972656 181.722656 C 246.933594 147.601562 249.703125 125.84375 250.273438 116.453125 C 250.332031 114.9375 250.265625 115.039062 250.074219 116.753906 C 250.320312 116.023438 250.523438 107.804688 250.6875 92.089844 C 250.601562 84.121094 250.34375 77.414062 249.921875 71.96875 C 248.949219 58.078125 247.125 45.273438 244.453125 33.558594 C 237.878906 11.734375 228.445312 0.546875 216.148438 -0.0078125 "/></g><path style=" stroke:none;fill-rule:nonzero;fill:#000000;fill-opacity:1;" d="M 225.304688 324.632812 L 227.394531 324.640625 C 230.082031 324.730469 232.578125 325.332031 234.875 326.449219 C 236.640625 327.542969 237.636719 328.085938 237.863281 328.074219 C 238.371094 328.347656 239.5 329.628906 241.25 331.921875 C 244.382812 336.320312 245.183594 342.285156 243.652344 349.816406 C 243.398438 351.046875 243.085938 352.15625 242.722656 353.136719 C 242.5 353.753906 241.683594 355.328125 240.265625 357.855469 C 238.960938 359.941406 237.695312 361.765625 236.464844 363.332031 L 237.398438 362.59375 C 236.671875 363.496094 235.890625 364.355469 235.0625 365.167969 L 233.761719 366.371094 C 231.078125 368.683594 228.109375 370.417969 224.847656 371.578125 C 220.8125 372.542969 217.9375 372.949219 216.214844 372.792969 C 209.035156 372.613281 202.804688 370.148438 197.523438 365.390625 C 196.761719 364.632812 196.0625 363.804688 195.425781 362.902344 L 194.554688 361.519531 C 194.316406 361.320312 193.578125 359.59375 192.339844 356.339844 C 192.410156 357.441406 192.941406 359.167969 193.929688 361.515625 C 193.546875 360.902344 193.136719 360.007812 192.699219 358.835938 C 191.609375 355.574219 191.308594 352.179688 191.796875 348.652344 C 192.800781 343.617188 194.40625 339.804688 196.613281 337.207031 C 201.855469 333.144531 206.277344 330.257812 209.886719 328.542969 C 211.886719 327.621094 214.820312 327.339844 218.683594 327.699219 C 220.5 327.726562 224.171875 328.5625 229.695312 330.210938 C 229.429688 329.597656 227.714844 328.742188 224.550781 327.636719 C 220.921875 326.585938 218.125 326.089844 216.160156 326.144531 C 219.960938 325.144531 223.011719 324.640625 225.304688 324.632812 M 226.851562 321.542969 L 224.863281 321.570312 C 219.203125 322 214.890625 322.957031 211.921875 324.445312 C 208.410156 325.96875 204.554688 328.234375 200.355469 331.242188 C 194.367188 335.859375 190.90625 342.085938 189.972656 349.929688 C 189.597656 353.648438 190.144531 357.285156 191.605469 360.832031 C 192.117188 361.984375 192.726562 363.0625 193.433594 364.074219 L 194.570312 365.546875 C 195.339844 366.457031 196.207031 367.320312 197.171875 368.136719 C 201.253906 371.324219 205.742188 373.375 210.628906 374.289062 C 213.445312 374.761719 216.511719 374.796875 219.835938 374.390625 C 222.523438 374.078125 224.648438 373.664062 226.210938 373.144531 C 225.6875 373.480469 223.855469 373.933594 220.714844 374.507812 L 220.867188 374.84375 C 225.21875 374.128906 228.183594 373.226562 229.757812 372.140625 C 233.085938 370.429688 236.039062 368.164062 238.613281 365.347656 C 240.914062 363.046875 243.296875 359.351562 245.761719 354.265625 C 246.679688 351.488281 247.253906 348.929688 247.492188 346.578125 C 248.457031 339.746094 246.738281 333.574219 242.339844 328.0625 L 240.113281 325.984375 C 236.839844 323.902344 234.957031 322.871094 234.460938 322.886719 C 231.875 321.992188 229.339844 321.542969 226.851562 321.542969 "/><path style=" stroke:none;fill-rule:nonzero;fill:#000000;fill-opacity:1;" d="M 210.722656 275.871094 L 211.203125 274.363281 L 211.867188 272.386719 L 212.402344 270.75 L 212.894531 269.09375 L 213.34375 267.390625 L 213.761719 265.644531 L 214.144531 263.855469 L 214.488281 262.082031 L 214.796875 260.351562 L 215.082031 258.59375 L 215.351562 256.808594 L 215.609375 254.992188 L 215.851562 253.152344 L 216.066406 251.335938 L 216.457031 247.710938 L 216.652344 245.902344 L 216.84375 244.09375 L 217.03125 242.289062 L 217.222656 240.488281 L 217.597656 236.894531 L 217.785156 235.109375 L 217.648438 235.265625 L 217.734375 233.09375 L 218.039062 230.296875 L 218.253906 228.476562 L 218.46875 226.652344 L 218.679688 224.832031 L 218.894531 223.011719 L 219.109375 221.1875 L 219.539062 217.546875 L 219.753906 215.722656 L 219.96875 213.902344 L 220.183594 212.078125 L 220.398438 210.257812 L 220.617188 208.4375 L 220.832031 206.613281 L 221.046875 204.792969 L 221.265625 202.972656 L 221.480469 201.152344 L 221.699219 199.332031 L 221.914062 197.515625 L 222.132812 195.695312 L 222.351562 193.878906 L 222.566406 192.0625 L 223.003906 188.429688 L 223.21875 186.617188 L 223.65625 182.992188 L 223.875 181.183594 L 224.09375 179.371094 L 224.246094 177.667969 L 224.546875 175.804688 L 224.90625 173.980469 L 225.289062 172.167969 L 225.683594 170.386719 L 226.074219 168.65625 L 226.511719 166.757812 L 226.90625 165.085938 L 227.316406 163.355469 L 227.753906 161.523438 L 228.179688 159.753906 L 228.589844 158.074219 L 229.015625 156.328125 L 229.460938 154.511719 L 229.902344 152.730469 L 230.316406 151.070312 L 230.746094 149.355469 L 231.1875 147.59375 L 231.640625 145.78125 L 232.078125 144.054688 L 232.5 142.394531 L 232.933594 140.695312 L 233.375 138.960938 L 233.828125 137.191406 L 234.289062 135.386719 L 234.617188 133.964844 L 234.996094 132.082031 L 235.296875 130.523438 L 235.65625 130.457031 L 235.222656 132.84375 L 234.835938 134.816406 L 234.464844 136.398438 L 233.636719 139.917969 L 233.457031 140.769531 L 233.902344 139.066406 L 234.363281 137.3125 L 234.835938 135.507812 L 235.179688 134.042969 L 235.566406 132.128906 L 235.878906 130.503906 L 236.230469 128.59375 L 236.5625 126.738281 L 236.863281 125.042969 L 237.179688 123.195312 L 237.246094 122.375 L 237.441406 120.363281 L 237.820312 117.808594 L 238.089844 116.074219 L 238.378906 114.261719 L 238.675781 112.367188 L 238.976562 110.453125 L 239.226562 108.726562 L 239.445312 106.972656 L 239.640625 105.191406 L 239.808594 103.378906 L 239.953125 101.535156 L 240.074219 99.667969 L 240.167969 97.851562 L 240.242188 96.097656 L 240.300781 94.320312 L 240.347656 92.523438 L 240.378906 90.699219 L 240.402344 88.855469 L 240.410156 86.988281 L 240.410156 85.105469 L 240.402344 83.238281 L 240.378906 81.394531 L 240.351562 79.578125 L 240.308594 77.789062 L 240.257812 76.015625 L 240.195312 74.238281 L 240.121094 72.425781 L 240.03125 70.546875 L 239.925781 68.695312 L 239.808594 66.871094 L 239.683594 65.074219 L 239.542969 63.304688 L 239.382812 61.523438 L 239.203125 59.652344 L 239.007812 57.8125 L 238.796875 56.003906 L 238.570312 54.230469 L 238.332031 52.488281 L 238.0625 50.675781 L 237.761719 48.839844 L 237.449219 47.039062 L 237.117188 45.277344 L 236.765625 43.554688 L 236.382812 41.792969 L 235.957031 39.984375 L 235.511719 38.21875 L 235.042969 36.496094 L 234.554688 34.824219 L 234.003906 33.074219 L 233.414062 31.332031 L 232.796875 29.648438 L 232.15625 28.015625 L 231.457031 26.367188 L 230.6875 24.695312 L 229.890625 23.089844 L 229.0625 21.550781 L 228.152344 20 L 227.171875 18.464844 L 226.132812 16.980469 L 225.019531 15.535156 L 223.773438 14.070312 L 222.464844 12.695312 L 221.101562 11.414062 L 219.617188 10.183594 L 218.066406 9.054688 L 216.457031 8.035156 L 214.769531 7.121094 L 213.027344 6.320312 L 211.234375 5.636719 L 209.4375 5.082031 L 207.597656 4.632812 L 205.714844 4.292969 L 203.910156 4.070312 L 202.074219 3.933594 L 200.214844 3.886719 L 198.4375 3.921875 L 196.695312 4.019531 L 194.945312 4.1875 L 193.195312 4.414062 L 191.578125 4.667969 L 189.992188 4.960938 L 188.421875 5.292969 L 186.867188 5.65625 L 184.832031 6.183594 L 182.511719 6.824219 L 180.566406 7.382812 L 179.179688 7.757812 L 178.542969 7.84375 L 178.707031 7.652344 L 179.476562 7.253906 L 180.757812 6.691406 L 182.4375 6.03125 L 184.417969 5.335938 L 186.710938 4.628906 L 189.210938 3.96875 L 191.710938 3.425781 L 194.25 3 L 196.5 2.726562 L 198.390625 2.566406 L 200.273438 2.511719 L 202.195312 2.542969 L 204.074219 2.664062 L 205.910156 2.878906 L 207.8125 3.203125 L 209.664062 3.632812 L 211.464844 4.167969 L 213.253906 4.816406 L 214.996094 5.578125 L 216.6875 6.445312 L 218.304688 7.414062 L 219.863281 8.480469 L 221.371094 9.652344 L 222.78125 10.890625 L 224.113281 12.199219 L 225.394531 13.601562 L 226.605469 15.0625 L 227.707031 16.527344 L 228.765625 18.074219 L 229.785156 19.703125 L 230.699219 21.292969 L 231.558594 22.921875 L 232.386719 24.613281 L 233.179688 26.378906 L 233.875 28.050781 L 234.539062 29.769531 L 235.175781 31.546875 L 235.789062 33.382812 L 236.324219 35.117188 L 236.816406 36.839844 L 237.289062 38.605469 L 237.742188 40.417969 L 238.171875 42.269531 L 238.542969 43.996094 L 238.894531 45.753906 L 239.230469 47.554688 L 239.546875 49.390625 L 239.847656 51.261719 L 240.109375 53.027344 L 240.347656 54.796875 L 240.578125 56.597656 L 240.789062 58.429688 L 240.988281 60.292969 L 241.167969 62.15625 L 241.320312 63.917969 L 241.464844 65.703125 L 241.59375 67.515625 L 241.710938 69.351562 L 241.816406 71.214844 L 241.910156 73.105469 L 241.984375 74.867188 L 242.046875 76.539062 L 242.042969 74.828125 L 242.027344 73.121094 L 241.992188 71.257812 L 241.941406 69.375 L 241.867188 67.460938 L 241.9375 65.558594 L 242.367188 70.328125 L 242.449219 72.191406 L 242.519531 74.003906 L 242.574219 75.765625 L 242.617188 77.550781 L 242.652344 79.355469 L 242.675781 81.179688 L 242.6875 83.03125 L 242.6875 84.898438 L 242.679688 86.785156 L 242.660156 88.65625 L 242.632812 90.503906 L 242.589844 92.328125 L 242.535156 94.132812 L 242.464844 95.917969 L 242.382812 97.679688 L 242.277344 99.480469 L 242.144531 101.367188 L 241.992188 103.226562 L 241.8125 105.0625 L 241.605469 106.871094 L 241.375 108.660156 L 241.109375 110.417969 L 240.800781 112.296875 L 240.480469 114.203125 L 240.175781 116.03125 L 239.878906 117.785156 L 239.597656 119.457031 L 239.300781 121.203125 L 238.972656 123.152344 L 238.664062 124.96875 L 238.375 126.65625 L 237.730469 130.347656 L 237.421875 132.054688 L 237.074219 133.886719 L 236.707031 135.628906 L 236.277344 137.367188 L 235.828125 139.195312 L 235.386719 140.980469 L 234.960938 142.722656 L 234.542969 144.429688 L 234.117188 146.175781 L 233.667969 148.03125 L 233.234375 149.832031 L 232.816406 151.582031 L 232.414062 153.277344 L 231.984375 155.082031 L 231.550781 156.929688 L 231.136719 158.703125 L 230.742188 160.40625 L 230.328125 162.210938 L 229.910156 164.0625 L 229.519531 165.808594 L 229.140625 167.523438 L 229.519531 166.089844 L 229.492188 167.554688 L 228.886719 170.375 L 228.53125 172.035156 L 228.132812 173.960938 L 227.8125 175.613281 L 227.496094 177.417969 L 227.347656 179.089844 L 226.933594 182.714844 L 226.722656 184.527344 L 226.511719 186.332031 L 226.300781 188.140625 L 226.089844 189.945312 L 225.878906 191.746094 L 225.664062 193.550781 L 225.453125 195.347656 L 225.238281 197.148438 L 225.027344 198.945312 L 224.597656 202.539062 L 223.308594 213.296875 L 223.089844 215.089844 L 222.875 216.878906 L 221.800781 225.84375 L 221.582031 227.636719 L 221.152344 231.230469 L 220.941406 233.027344 L 220.726562 234.824219 L 220.511719 236.625 L 220.714844 236.550781 L 220.398438 240.164062 L 220.175781 242.214844 L 219.949219 244.289062 L 219.71875 246.378906 L 219.488281 248.484375 L 219.253906 250.601562 L 219.011719 252.765625 L 218.71875 254.964844 L 218.414062 257.144531 L 218.085938 259.296875 L 217.730469 261.417969 L 217.34375 263.523438 L 216.894531 265.734375 L 216.394531 267.894531 L 215.84375 270.003906 L 215.234375 272.0625 L 214.550781 274.113281 L 213.84375 276.152344 L 213.144531 278.097656 L 212.414062 280.050781 L 211.65625 282.007812 L 210.914062 283.847656 L 210.113281 285.746094 L 209.304688 287.5625 L 208.484375 289.304688 L 207.597656 291.074219 L 206.730469 292.683594 L 205.753906 294.363281 L 204.796875 295.855469 L 203.707031 297.375 L 202.609375 298.703125 L 201.339844 299.984375 L 199.960938 301.0625 L 198.4375 301.867188 L 196.730469 302.285156 L 195.027344 302.175781 L 193.640625 301.660156 L 192.464844 300.894531 L 191.410156 299.921875 L 190.613281 298.980469 L 190.035156 298.144531 L 189.511719 297.285156 L 189.042969 296.421875 L 188.621094 295.554688 L 188.164062 294.464844 L 187.992188 293.847656 L 188.023438 293.617188 L 188.199219 293.675781 L 188.527344 294.03125 L 189.089844 294.792969 L 189.808594 295.769531 L 190.671875 296.855469 L 191.652344 297.941406 L 193.003906 299.15625 L 194.566406 300.035156 L 196.28125 300.257812 L 198.105469 299.585938 L 199.871094 298.121094 L 201.5 296.140625 L 202.996094 293.839844 L 204.394531 291.304688 L 205.65625 288.714844 L 206.855469 286.011719 L 208.019531 283.171875 L 209.066406 280.453125 L 210.105469 277.617188 Z M 210.722656 275.871094 "/><path style=" stroke:none;fill-rule:nonzero;fill:#000000;fill-opacity:1;" d="M 212.699219 324.410156 L 213.917969 325.261719 C 219.847656 327.175781 223.300781 328.414062 224.273438 328.984375 C 227.085938 330.371094 228.691406 331.253906 229.089844 331.625 C 230.050781 332.261719 230.957031 332.957031 231.796875 333.714844 L 233.011719 335.03125 C 233.738281 335.9375 234.328125 336.933594 234.78125 338.019531 C 235.207031 339.054688 235.511719 340.132812 235.699219 341.246094 L 236.140625 344.902344 L 235.925781 346.75 L 235.734375 347.386719 L 235.585938 345.195312 C 235.109375 348.382812 234.777344 350.195312 234.585938 350.628906 C 233.996094 352.890625 233.210938 355.019531 232.234375 357.019531 C 231.78125 357.863281 231.152344 358.816406 230.347656 359.878906 L 226.789062 364.207031 L 226.058594 365.316406 C 224.480469 367.011719 222.699219 368.40625 220.714844 369.492188 C 219.894531 370.050781 218.679688 370.667969 217.066406 371.339844 C 215.285156 371.628906 214.066406 371.9375 213.40625 372.265625 L 213.539062 372.910156 C 214.175781 373.28125 214.925781 373.542969 215.796875 373.703125 L 217.628906 373.796875 L 219.570312 373.378906 C 220.898438 372.839844 222.1875 372.1875 223.441406 371.417969 L 225.277344 370.175781 C 226.570312 369.203125 227.691406 368.183594 228.632812 367.117188 L 229.738281 365.527344 C 231.8125 363.261719 233.015625 361.851562 233.351562 361.296875 C 234.183594 360.167969 234.851562 359.082031 235.351562 358.039062 L 236.089844 356.222656 L 236.695312 354.394531 L 236.695312 353.03125 C 237 351.816406 237.253906 350.578125 237.453125 349.324219 C 237.847656 346.28125 238.011719 344.335938 237.949219 343.484375 C 237.945312 342.121094 237.8125 340.816406 237.554688 339.570312 L 237.0625 337.742188 C 236.617188 336.429688 235.996094 335.210938 235.207031 334.082031 L 233.269531 332.117188 L 234.511719 333.988281 C 231.484375 330.800781 227.40625 328.304688 222.277344 326.503906 C 218.464844 325.042969 215.273438 324.34375 212.699219 324.410156 "/></g></svg>